<svg version="1.2" xmlns="http://www.w3.org/2000/svg" viewBox="0 0 185 185" width="185" height="185"><defs><linearGradient id="P" gradientUnits="userSpaceOnUse"/><linearGradient id="g1" x1="92.5" y1="20.2" x2="92.5" y2="176.3" href="#P"><stop offset=".1" stop-color="#00d09c"/><stop offset="1" stop-color="#00d09c"/></linearGradient><linearGradient id="g2" x1="92.5" y1="70.3" x2="92.5" y2="176.3" href="#P"><stop stop-color="#00d09c"/><stop offset="1" stop-color="#0169fe"/></linearGradient><linearGradient id="g3" x1="92.5" y1="110.4" x2="92.5" y2="176.3" href="#P"><stop stop-color="#00d09c"/><stop offset=".7" stop-color="#0169fe"/></linearGradient></defs><style>.s0{fill:url(#g1);stroke:#22252a;stroke-width:6}.s1{fill:#e4f4fd}.s2{fill:#ffffff}.s3{fill:#e13332}.s4{fill:url(#g2);stroke:#22252a;stroke-width:6}.s5{fill:url(#g3);stroke:#22252a;stroke-width:6}.s6{fill:#0169fe}.s7{fill:#22252a}</style><path class="s0" d="m11.7 76c0-1.5 0.4-3 1.1-4.3l-2.6-1.4l2.6 1.4c0.7-1.3 1.8-2.3 3.1-3.1q0 0 0 0l76.6-44.9l76.6 44.9c1.3 0.8 2.4 1.8 3.1 3.1c0.7 1.3 1.1 2.8 1.1 4.3v88.8c0 2.2-0.9 4.4-2.5 6c-1.6 1.6-3.8 2.5-6 2.5h-144.6c-2.2 0-4.4-0.9-6-2.5c-1.6-1.6-2.5-3.8-2.5-6z" /><path class="s1" d="m34.7 176.3v-161.8c0-1.6 0.6-3.1 1.7-4.1c1.1-1.1 2.5-1.7 4.1-1.7h104c1.6 0 3 0.6 4.1 1.7c1.1 1 1.7 2.5 1.7 4.1v161.8z" /><path class="s2" d="m66.5 46.3c0-14.4 11.6-26.1 26-26.1c14.4 0 26 11.7 26 26.1c0 14.3-11.6 26-26 26c-14.4 0-26-11.7-26-26z" /><path class="s3" d="m106.1 41.3c0.5 0.6 0.9 1.3 0.9 2.1v5.7c0 0.8-0.4 1.5-0.9 2.1c-0.5 0.5-1.3 0.8-2 0.8h-5.8v5.8c0 0.8-0.3 1.5-0.9 2.1c-0.5 0.5-1.2 0.8-2 0.8h-5.8c-0.8 0-1.5-0.3-2-0.8c-0.6-0.6-0.9-1.3-0.9-2.1v-5.8h-5.8c-0.7 0-1.5-0.3-2-0.8c-0.5-0.6-0.9-1.3-0.9-2.1v-5.7c0-0.8 0.4-1.5 0.9-2.1c0.5-0.5 1.3-0.8 2-0.8h5.8v-5.8c0-0.8 0.3-1.5 0.9-2.1c0.5-0.5 1.2-0.8 2-0.8h5.8c0.8 0 1.5 0.3 2 0.8c0.6 0.6 0.9 1.3 0.9 2.1v5.8h5.8c0.7 0 1.5 0.3 2 0.8z" /><path class="s4" d="m173.3 76v88.8c0 2.2-0.9 4.4-2.5 6c-1.6 1.6-3.8 2.5-6 2.5h-144.6c-2.2 0-4.4-0.9-6-2.5c-1.6-1.6-2.5-3.8-2.5-6v-88.8q0-0.2 0-0.4l71.3 61.7c2.6 2.3 6 3.6 9.5 3.6c3.5 0 6.9-1.3 9.5-3.6l71.3-61.7q0 0.2 0 0.4z" /><path class="s5" d="m98 115.4l69.1 57.6q-1.2 0.3-2.3 0.3h-144.6q-1.1 0-2.3-0.3l69.1-57.6q0 0 0 0c1.6-1.3 3.5-2 5.5-2c2 0 3.9 0.7 5.5 2q0 0 0 0z" /><path class="s6" d="m118.5 98.3c0-1.6 1.3-2.9 2.9-2.9c1.6 0 2.9 1.3 2.9 2.9c0 1.6-1.3 2.9-2.9 2.9c-1.6 0-2.9-1.3-2.9-2.9z" /><path class="s7" d="m61.5 85.9c-0.5-0.6-0.8-1.3-0.8-2.1c0-0.7 0.3-1.5 0.8-2c0.6-0.6 1.3-0.9 2.1-0.9h57.8c0.8 0 1.5 0.3 2.1 0.9c0.5 0.5 0.8 1.3 0.8 2c0 0.8-0.3 1.5-0.8 2.1c-0.6 0.5-1.3 0.8-2.1 0.8h-57.8c-0.8 0-1.5-0.3-2.1-0.8zm50.4 10.3c0.5 0.6 0.8 1.3 0.8 2.1c0 0.7-0.3 1.5-0.8 2c-0.6 0.6-1.3 0.9-2.1 0.9h-46.2c-0.8 0-1.5-0.3-2.1-0.9c-0.5-0.5-0.8-1.3-0.8-2c0-0.8 0.3-1.5 0.8-2.1c0.6-0.5 1.3-0.8 2.1-0.8h46.2c0.8 0 1.5 0.3 2.1 0.8z" /></svg>