<svg version="1.2" xmlns="http://www.w3.org/2000/svg" viewBox="0 0 185 150" width="185" height="150"><defs><clipPath clipPathUnits="userSpaceOnUse" id="cp1"><path d="m0 0h185v150h-185z" /></clipPath></defs><style>.s0{fill:#22252a}.s1{fill:#0169fe}.s2{fill:#00d09c}</style><g clip-path="url(#cp1)"><path fill-rule="evenodd" class="s0" d="m100.9 150.3v-28c-7-1.2-13.4-5.5-18.1-12c-4.6-6.4-7.1-14.7-7.1-23.3v-10.2c0-9.5 3.1-18.6 8.6-25.3c5.5-6.7 13-10.4 20.8-10.4h50.6c7.8 0 15.3 3.7 20.8 10.4c5.5 6.7 8.6 15.8 8.6 25.3v10.2c0 9.4-3.1 18.5-8.6 25.2c-5.5 6.7-13 10.5-20.8 10.5h-31.9zm4.2-99c-5.6 0-10.9 2.7-14.9 7.4c-3.9 4.8-6.2 11.3-6.2 18.1v10.2c0 6.7 2.3 13.2 6.2 18c4 4.8 9.3 7.5 14.9 7.5h4.2v13.2l11-13.2h35.3c5.6 0 11-2.7 14.9-7.5c4-4.8 6.2-11.3 6.2-18v-10.2c0-6.8-2.2-13.3-6.2-18.1c-3.9-4.7-9.3-7.4-14.9-7.4z" /><path class="s1" d="m168.3 76.8v10.2c0 8.4-5.7 15.3-12.6 15.3h-50.6c-6.9 0-12.6-6.9-12.6-15.3v-10.2c0-8.5 5.7-15.3 12.6-15.3h50.6c6.9 0 12.6 6.8 12.6 15.3z" /><path class="s0" d="m155.7 76.8h-50.6c-1.1 0-2.2-0.6-2.9-1.5c-0.8-1-1.3-2.3-1.3-3.6c0-1.4 0.5-2.7 1.3-3.6c0.7-1 1.8-1.5 2.9-1.5h50.6c1.1 0 2.1 0.5 2.9 1.5c0.8 0.9 1.3 2.2 1.3 3.6c0 1.3-0.5 2.6-1.3 3.6c-0.8 0.9-1.8 1.5-2.9 1.5zm0 20.4h-50.6c-1.1 0-2.2-0.6-2.9-1.5c-0.8-1-1.3-2.3-1.3-3.6c0-1.4 0.5-2.7 1.3-3.6c0.7-1 1.8-1.5 2.9-1.5h50.6c1.1 0 2.1 0.5 2.9 1.5c0.8 0.9 1.3 2.2 1.3 3.6c0 1.3-0.5 2.6-1.3 3.6c-0.8 0.9-1.8 1.5-2.9 1.5z" /><path class="s2" d="m78.4 44.4c-4 4.8-7 10.6-8.9 17.1h-52.8v-40.8h75.8v12.9c-5.3 2.2-10.1 5.9-14.1 10.8z" /><path class="s0" d="m42 109.5l-22.8-27.6h-6.7c-3.4 0-6.6-1.6-8.9-4.5c-2.4-2.9-3.7-6.8-3.7-10.8v-51c0-4.1 1.3-8 3.7-10.9c2.3-2.8 5.5-4.5 8.9-4.5h84.2c3.4 0 6.6 1.7 8.9 4.5c2.4 2.9 3.7 6.8 3.7 10.9v10.2c0 1.3-0.4 2.6-1.2 3.6c-0.8 0.9-1.9 1.5-3 1.5c-1.1 0-2.2-0.6-2.9-1.5c-0.8-1-1.3-2.3-1.3-3.6v-10.2c0-1.4-0.4-2.7-1.2-3.7c-0.8-0.9-1.9-1.4-3-1.4h-84.2c-1.1 0-2.2 0.5-3 1.4c-0.8 1-1.2 2.3-1.2 3.7v51c0 1.3 0.4 2.6 1.2 3.6c0.8 0.9 1.9 1.5 3 1.5h10.1l10.9 13.2v-13.2h29.5c1.1 0 2.2 0.5 3 1.5c0.8 0.9 1.2 2.2 1.2 3.6c0 1.3-0.4 2.6-1.2 3.6c-0.8 0.9-1.9 1.5-3 1.5h-21z" /><path class="s0" d="m75.7 36h-46.4c-1.1 0-2.1-0.6-2.9-1.5c-0.8-1-1.3-2.3-1.3-3.6c0-1.4 0.5-2.7 1.3-3.7c0.8-0.9 1.8-1.4 2.9-1.4h46.4c1.1 0 2.1 0.5 2.9 1.4c0.8 1 1.3 2.3 1.3 3.7c0 1.3-0.5 2.6-1.3 3.6c-0.8 0.9-1.8 1.5-2.9 1.5zm-12.7 20.4h-33.7c-1.1 0-2.1-0.6-2.9-1.5c-0.8-1-1.3-2.3-1.3-3.6c0-1.4 0.5-2.7 1.3-3.6c0.8-1 1.8-1.5 2.9-1.5h33.7c1.1 0 2.2 0.5 3 1.5c0.8 0.9 1.2 2.2 1.2 3.6c0 1.3-0.4 2.6-1.2 3.6c-0.8 0.9-1.9 1.5-3 1.5z" /></g></svg>