<svg version="1.2" xmlns="http://www.w3.org/2000/svg" viewBox="0 0 185 185" width="185" height="185"><defs><linearGradient id="P" gradientUnits="userSpaceOnUse"/><linearGradient id="g1" x1="92.5" y1="14.5" x2="92.5" y2="156.1" href="#P"><stop offset=".4" stop-color="#22252a"/><stop offset=".6" stop-color="#0d0f10"/><stop offset=".7" stop-color="#22252a"/></linearGradient></defs><style>.s0{fill:#f4f4f4}.s1{fill:#0169fe}.s2{fill:#1dac3e}.s3{fill:#e13332;stroke:#22252a;stroke-width:2}.s4{fill:url(#g1)}.s5{fill:#22252a}</style><path class="s0" d="m8.7 92.5c0-46.3 37.5-83.8 83.8-83.8c46.3 0 83.8 37.5 83.8 83.8c0 46.3-37.5 83.8-83.8 83.8c-46.3 0-83.8-37.5-83.8-83.8z" /><path class="s1" d="m23.1 92.5c0-38.3 31.1-69.4 69.4-69.4c38.3 0 69.4 31.1 69.4 69.4c0 38.3-31.1 69.4-69.4 69.4c-38.3 0-69.4-31.1-69.4-69.4z" /><path class="s2" d="m67.7 140.8c-0.7 1.4-1.8 2.6-3.2 3.3l-11.2 5.6c-13.8-9.5-23.8-23.6-28-39.9h15.2l5.2-3.4c1-0.7 2.2-1.1 3.5-1.2c1.3-0.1 2.6 0.2 3.7 0.7l7.8 3.9h10.2q1.4 0 2.7 0.6q1.3 0.5 2.4 1.5q1 1 1.5 2.4q0.5 1.3 0.5 2.7c0 1.3-0.3 2.6-1 3.7c-0.7 1.2-1.7 2.1-2.9 2.7l-2.7 1.3c-1.4 0.7-2.6 1.9-3.3 3.3c-0.6 1.4-0.9 3-0.5 4.5l0.7 3.8c0.3 1.5 0.1 3.1-0.6 4.5z" /><path class="s0" d="m86.7 138.8l-5.8-0.1v-5.7h5.8z" /><path class="s0" d="m109.8 46.3h-5.7v-5.8h5.7z" /><path class="s0" d="m133 118.5h-5.8v-5.8h5.8z" /><path class="s0" d="m43.4 78h-5.8v-5.7h5.8z" /><path class="s2" d="m113.2 91.1l2.8-3.2l-5.9-2.9c-3.3-1.6-4.2-5.8-1.9-8.8l2.8-3.5q0.7-0.9 1.6-1.5l2.1-1.3q1-0.6 2.2-0.8q1.1-0.1 2.2 0.1q1.2 0.3 2.1 1q0.9 0.7 1.5 1.7l1.6 2.8c0.7 1.2 1.8 2.1 3.1 2.5c1.3 0.4 2.8 0.4 4-0.1l4.1-1.7c1.3-0.5 2.7-0.5 4-0.1c1.3 0.4 2.4 1.3 3.1 2.5l2.8 4.7c0.5 1 0.8 2 0.7 3.1c0 1.1-0.4 2.2-1 3.1l-3.8 5.8c-0.7 1.3-1.9 2.1-3.3 2.5c-1.4 0.4-2.9 0.3-4.2-0.3l-2.8-1.3l-5.7 6.5c-0.7 0.7-1.5 1.1-2.5 1.2c-0.9 0-1.8-0.3-2.5-0.9l-6.9-6.1c-0.7-0.7-1.1-1.5-1.2-2.5c0-0.9 0.3-1.8 1-2.5z" /><path class="s3" d="m108.8 115.6c0 1-0.4 2.3-1.2 3.8c-0.8 1.6-1.8 3.2-2.9 4.7c-1.1 1.4-2.1 2.8-2.9 3.8q-0.4 0.3-0.6 0.7q-0.3-0.4-0.6-0.7c-0.8-1-1.9-2.4-3-3.8c-1-1.5-2.1-3.1-2.9-4.7c-0.8-1.5-1.2-2.8-1.2-3.8c0-2 0.8-4 2.2-5.4c1.5-1.4 3.4-2.2 5.5-2.2c2 0 4 0.8 5.4 2.2c1.4 1.4 2.2 3.4 2.2 5.4zm-46.3-15.6c0 1.5-0.6 3.6-1.7 5.8c-1 2.3-2.4 4.7-3.8 6.9c-1.4 2.2-2.8 4.1-3.9 5.5q-0.6 0.8-1 1.3q-0.4-0.5-1-1.3c-1-1.4-2.4-3.3-3.8-5.5c-1.4-2.2-2.8-4.6-3.9-6.9c-1-2.2-1.7-4.3-1.7-5.8c0-6.6 4.8-11.7 10.4-11.7c5.7 0 10.4 5.1 10.4 11.7zm75.3-38.2c0 1.6-0.7 3.6-1.7 5.9c-1.1 2.2-2.5 4.6-3.9 6.8c-1.4 2.2-2.8 4.1-3.9 5.6q-0.5 0.7-0.9 1.3q-0.4-0.6-1-1.3c-1.1-1.5-2.5-3.4-3.9-5.6c-1.4-2.2-2.8-4.6-3.8-6.8c-1.1-2.3-1.7-4.3-1.7-5.9c0-6.5 4.7-11.7 10.4-11.7c5.6 0 10.3 5.2 10.3 11.7z" /><path class="s2" d="m58.8 45.5l9.1-6.8q0.7-0.5 1.5-0.7q0.9-0.1 1.8 0.2l13.7 4.6q0.9 0.2 1.5 0.9q0.6 0.6 0.9 1.5l7.5 25.3q0.3 0.8 0.1 1.7q-0.1 0.8-0.7 1.5l-7.6 9.5q-0.5 0.6-1.2 1q-0.7 0.3-1.6 0.3q-0.8 0-1.5-0.3q-0.8-0.4-1.3-1l-7.8-9.8c-0.6-0.7-1.4-1.2-2.4-1.3l-14.8-2.2q-0.8-0.1-1.4-0.5q-0.7-0.4-1.1-1q-0.4-0.7-0.6-1.4q-0.1-0.8 0.1-1.5l4.5-18c0.2-0.8 0.7-1.5 1.3-2z" /><path fill-rule="evenodd" class="s4" d="m106.9 156.1l-12.8-5.7q-0.7-0.5-1.2-1.3q-0.4-0.8-0.4-1.7q0-0.9 0.4-1.7q0.5-0.8 1.2-1.3l11-4.4c1.2-0.8 2.6-1.2 4-1.2h9.7l25.7-17.4h8.7l-11.6 20.2l17.4 2.9l11.5-8.6h5.8l-5.8 20.2zm-92.4-107l-5.8-20.2h5.8l11.5 8.7l17.4-2.9l-11.6-20.2h8.7l25.7 17.3h9.7c1.4 0 2.8 0.4 4 1.2l11 4.5q0.7 0.5 1.2 1.3q0.4 0.8 0.4 1.7q0 0.9-0.4 1.7q-0.5 0.8-1.2 1.3l-12.8 5.6z" /><path class="s5" d="m29.1 142.7l-4.5 3.6c-10.2-12.7-16.5-28-18.3-44.2c-1.8-16.2 1-32.5 8.1-47.2h6.4c-6.1 11.6-9.2 24.5-9.2 37.6c-0.1 18.3 6.1 36 17.5 50.2zm124.1-128.2v17.4c0 0.5-0.2 1.1-0.5 1.5c-0.3 0.5-0.7 0.9-1.3 1.1c-0.5 0.2-1 0.3-1.6 0.2c-0.6-0.1-1.1-0.4-1.5-0.8c-12.2-11.6-27.8-19.2-44.6-21.6c-16.7-2.3-33.8 0.7-48.8 8.5v-6.4c14.9-7.2 31.5-10 47.9-8c16.4 2 31.9 8.6 44.6 19v-10.9zm-14.4 144.4v6.9c-16 10.1-34.7 14.7-53.5 13.1c-18.8-1.6-36.5-9.2-50.6-21.8v13.5l-5.8-0.1l0.1-20.2c0-0.6 0.2-1.1 0.5-1.6c0.3-0.5 0.8-0.9 1.3-1.1c0.5-0.2 1.1-0.2 1.7-0.1c0.5 0.1 1.1 0.4 1.5 0.8c7.5 8 16.6 14.3 26.7 18.6c10 4.3 20.9 6.5 31.8 6.5c16.6 0 32.7-5 46.3-14.5zm40.4-66.4c0.1 14.1-3.4 28-10 40.5h-6.6c7.2-12.3 10.9-26.3 10.9-40.5c0-19.5-7.1-38.3-19.9-53l4.4-3.8c13.7 15.7 21.2 35.9 21.2 56.8z" /></svg>