<svg version="1.2" xmlns="http://www.w3.org/2000/svg" viewBox="0 0 185 185" width="185" height="185"><defs><linearGradient id="P" gradientUnits="userSpaceOnUse"/><linearGradient id="g1" x1="91.8" y1="65.8" x2="91.8" y2="103" href="#P"><stop stop-color="#00d09c"/><stop offset="1" stop-color="#0169fe"/></linearGradient></defs><style>.s0{fill:#765d38}.s1{fill:#f7caa5}.s2{fill:url(#g1)}.s3{fill:#edb288}.s4{fill:#d4e1f4}.s5{fill:#ffffff}.s6{fill:#22252a}.s7{fill:#e13332}</style><path class="s0" d="m80.6 48.7h4.7v0.7c-2.7 4.4-6.3 7.8-10.4 10.1c-4.2 2.2-8.7 3.1-13.1 2.6v-14.9c0 0 1.4-12.1 9.6-16.5c-0.6 1.7-1 3.5-1 5.3c0 3.4 1.1 6.6 3 9c1.9 2.4 4.5 3.7 7.2 3.7z" /><path class="s0" d="m121.6 48.7v19.2c-8.1-4.2-15.3-10.8-21-19.2h-20c-2.7 0-5.3-1.3-7.2-3.7c-1.9-2.4-3-5.6-3-9c0-1.8 0.4-3.6 1-5.3c0.5-1.3 1.1-2.5 2-3.4c0.9-1.3 2-2.2 3.3-2.9c1.2-0.7 2.6-1 3.9-1h20.8c3.8 0 7.5 1.4 10.6 3.9c3.2 2.5 5.8 6 7.5 10.2c1.4 3.4 2.1 7.3 2.1 11.2z" /><path class="s1" d="m100.6 48.7c5.7 8.4 12.9 15 21 19.2v6.8h-3.7v-3.4h-52.6v3.4h-3.5v-12.6c4.4 0.5 8.9-0.4 13.1-2.6c4.1-2.3 7.7-5.7 10.4-10.1v-0.7z" /><path class="s2" d="m151.4 87.9c-6.4 11.7-15.3 8.7-15.3 8.7v-12.1v-5.6c0-2 0.5-3.9 1.4-5.5c0.9-1.5 2.2-2.7 3.7-3.3l10.8-3.9c1.6-0.5 3.2-0.5 4.7 0l10.8 3.9c1.5 0.6 2.8 1.8 3.7 3.3c1 1.6 1.4 3.5 1.4 5.5v5.3v11c-3.7 1.5-7.7 1.6-11.5 0.3c-3.7-1.3-7.1-3.9-9.7-7.6zm-103.5-1.5v6.1h-0.2v8c-13.2 8.3-21.2-7-21.2-7c-8.5-1.2-15.5 8-15.5 8v-8.8v-6.3c0-1.8 0.5-3.6 1.4-5.1c0.9-1.5 2.2-2.5 3.7-2.9l11-3.7q2.2-0.3 4.5 0l11 3.7c1.5 0.4 2.8 1.4 3.8 2.8c0.9 1.5 1.4 3.3 1.5 5.2z" /><path class="s1" d="m47.7 100.8v14.6c0 3-0.5 5.9-1.4 8.7c-0.9 2.7-2.2 5.2-3.9 7.3l-6.5 5.4q-3.2 1.3-6.5 1.5c-2-0.1-4-0.5-5.9-1.3c-3.6-1.5-6.8-4.4-9-8.3c-2.3-3.9-3.5-8.5-3.5-13.3v-13.6c0 0 7-9.3 15.5-8.1c0 0 8 15.4 21.2 7.1zm73.7-16.6c0 7.6-1.9 14.9-5.3 21.1c-3.5 6.1-8.4 10.9-14.1 13.5c-3.3 1.5-6.9 2.2-10.4 2.2c-3.2 0.1-6.4-0.6-9.4-2c-6-2.3-11.2-6.9-14.9-13.2c-3.6-6.2-5.6-13.8-5.5-21.6v-9.5h3.5c-0.2 2-0.1 3.9 0.4 5.8c0.4 1.8 1.2 3.6 2.2 5c1.1 1.5 2.3 2.7 3.8 3.5c1.4 0.8 2.9 1.2 4.5 1.2c1.6 0 3.1-0.4 4.5-1.2c1.5-0.8 2.7-2 3.8-3.5c1-1.4 1.8-3.2 2.2-5c0.5-1.9 0.6-3.8 0.4-5.8v-3.4h9v3.4c0 1.8 0.2 3.6 0.8 5.2c0.5 1.7 1.3 3.2 2.3 4.5c1 1.2 2.2 2.2 3.5 2.9c1.3 0.7 2.8 1.1 4.2 1.1c2.9 0 5.7-1.5 7.8-4c2-2.6 3.2-6.1 3.2-9.7h3.5zm51.2 11.2v13.7c0 6.3-1.9 12.5-5.3 17.2l-6.5 5.6l-6.4 1.5c-2 0-3.9-0.4-5.7-1.2h-0.8c-3.6-2-6.6-5.2-8.7-9.3c-2.1-4-3.1-8.8-3.1-13.6v-12.7c0 0 8.9 3 15.3-8.7c2.6 3.7 5.9 6.4 9.7 7.7c3.8 1.4 7.8 1.3 11.5-0.2z" /><path class="s3" d="m161 132.4v5.9c-0.8 1.1-1.9 1.9-3 2.5c-1.2 0.6-2.4 0.9-3.6 0.9q-1.7-0.1-3.2-1c-0.9-0.6-1.8-1.4-2.5-2.4v-5.9c1.8 0.8 3.7 1.2 5.7 1.2l6.4-1.4v0.5zm-58.8-4.2l-10 12.9l-0.4-0.5l-9.8-12.1v-9.5c3 1.4 6.2 2 9.4 1.9c3.5 0 7.1-0.7 10.4-2.2v9.5zm-72.6 21.9l-6.1-7.3v-5.6c1.9 0.8 3.9 1.2 5.9 1.2q3.3-0.2 6.5-1.4v5.8l-6.3 7.6z" /><path class="s4" d="m29.6 150.2h-0.2v17.3h-27.4v-9.3c0-4.1 1.4-8 3.7-10.8c2.4-2.9 5.5-4.5 8.8-4.5h9z" /><path class="s4" d="m29.8 150.4l6.3-7.5h12.9c-1.2 3.4-1.9 7.2-1.9 10.9v13.9h-17.7v-17.3z" /><path class="s4" d="m68.7 128.5h13.3l9.8 12.2v40.6h-44.7v-27.5c0-3.7 0.7-7.5 1.9-10.9c1.7-4.3 4.3-7.9 7.6-10.5c3.3-2.5 7-3.9 10.9-3.9z" /><path fill-rule="evenodd" class="s4" d="m92.2 141.2l10-12.7h14.7c3.2 0.1 6.3 1 9.1 2.8c2.8 1.8 5.3 4.3 7.2 7.5c2.6 4.3 4.1 9.6 4.1 15v27.5h-45.7v-40.6zm25.1 7.8c-1.4 0-2.7 0.5-3.9 1.4c-1.2 1-2.1 2.3-2.6 3.9c-0.6 1.6-0.7 3.3-0.5 5c0.3 1.7 0.9 3.3 1.9 4.5q1 1.3 2.3 2q1.4 0.7 2.8 0.7c1.8-0.1 3.6-1.1 4.9-2.7c1.3-1.6 2.1-3.8 2.2-6c0-1.2-0.2-2.4-0.6-3.5c-0.4-1.1-0.9-2.1-1.6-2.9c-1.3-1.5-3.1-2.4-4.9-2.4z" /><path class="s4" d="m154.4 141.9v25.8h-17.1v-13.9c0-5.4-1.5-10.7-4.1-15.1h15.5c1.5 2 3.5 3.1 5.7 3.2zm28 13.2v12.6h-28v-25.8c1.2 0 2.4-0.3 3.6-0.8c1.1-0.6 2.2-1.5 3-2.6h8.9c1.7 0.1 3.3 0.5 4.9 1.4c1.5 0.9 2.9 2.1 4.1 3.7c1.2 1.5 2.1 3.3 2.7 5.3c0.6 1.9 0.9 4 0.8 6.2z" /><path class="s5" d="m122.2 151.4c0.7 0.8 1.2 1.8 1.6 2.9c0.4 1.1 0.6 2.3 0.6 3.4c-0.1 2.3-0.9 4.5-2.2 6.1c-1.3 1.6-3.1 2.6-4.9 2.7q-1.4 0-2.8-0.7q-1.3-0.7-2.3-2c-1.3-1.6-2.1-3.9-2.1-6.2c0-2.3 0.8-4.5 2.1-6.2c1.3-1.6 3.1-2.6 5-2.6c1.9 0 3.7 1 5 2.6z" /><path class="s6" d="m117.9 71.3v3.4c0 3.6-1.2 7.1-3.2 9.7c-2.1 2.5-4.9 4-7.8 4c-1.4 0-2.9-0.4-4.2-1.1c-1.3-0.7-2.5-1.7-3.5-2.9c-1-1.3-1.8-2.8-2.3-4.5c-0.6-1.6-0.8-3.4-0.8-5.2v-3.4zm-30.8 0v3.4c0.2 2 0.1 3.9-0.4 5.8c-0.4 1.8-1.2 3.6-2.2 5c-1 1.5-2.3 2.7-3.7 3.5c-1.5 0.8-3 1.2-4.6 1.2c-1.5 0-3.1-0.4-4.5-1.2c-1.4-0.8-2.7-2-3.7-3.5c-1.1-1.4-1.8-3.2-2.3-5c-0.4-1.9-0.6-3.8-0.4-5.8v-3.4z" /><path class="s7" d="m50.8 22.4v11.7h-14.9v18.5h-9.4v-18.5h-15.1v-11.7h15.1v-18.7h9.4v18.7z" /><path class="s6" d="m148.7 141.9c-0.8 0-1.6-0.4-2.2-1c-0.6-0.7-0.9-1.6-1-2.6v-5.9c0.1-1 0.4-1.9 1-2.6c0.6-0.7 1.4-1 2.2-1c0.7 0 1.4 0.4 1.9 1.1c0.5 0.7 0.8 1.6 0.8 2.5v5.9c0 0.9-0.3 1.8-0.8 2.5c-0.5 0.6-1.2 1.1-1.9 1.1z" /><path class="s6" d="m161 141.9c-0.7 0-1.5-0.4-2-1.1c-0.6-0.6-0.9-1.6-0.9-2.5v-5.9c0-0.9 0.3-1.9 0.9-2.6c0.5-0.6 1.3-1 2-1c0.8 0 1.6 0.4 2.1 1c0.6 0.7 0.9 1.7 0.9 2.6v5.9c0 0.9-0.3 1.9-0.9 2.5c-0.5 0.7-1.3 1.1-2.1 1.1z" /><path class="s6" d="m146.7 113.4q-1.2 0-2.4-0.6q-1.1-0.6-2-1.7q-0.8-1.1-1.3-2.5q-0.4-1.4-0.4-3v-0.9c0-1 0.3-1.9 0.9-2.6c0.6-0.7 1.3-1.1 2.1-1.1c0.8 0 1.5 0.4 2.1 1.1c0.5 0.7 0.8 1.6 0.8 2.6v0.9q0 0.3 0.2 0.5v-1.4c0-1 0.3-1.9 0.9-2.6c0.5-0.7 1.3-1.1 2.1-1.1q0.6 0 1.1 0.2q0.6 0.3 1 0.8q0.4 0.5 0.6 1.2q0.2 0.7 0.2 1.5v0.9q0 1.5-0.4 3q-0.4 1.4-1.2 2.5q-0.9 1-2 1.7q-1.1 0.6-2.3 0.6z" /><path class="s6" d="m162.2 113.4q-1.2 0-2.4-0.6q-1.1-0.6-2-1.7q-0.8-1.1-1.3-2.5q-0.4-1.4-0.4-3v-0.9c0-1 0.3-1.9 0.9-2.6c0.5-0.7 1.3-1.1 2.1-1.1c0.8 0 1.5 0.4 2.1 1.1c0.5 0.7 0.8 1.6 0.8 2.6v0.9q0 0.1 0.1 0.2q0 0.1 0.1 0.1q0.1 0 0.2-0.1q0-0.1 0-0.2v-0.9q0-0.8 0.2-1.5q0.2-0.7 0.6-1.2q0.4-0.5 1-0.8q0.6-0.2 1.2-0.2c0.7 0 1.5 0.4 2 1.1c0.6 0.7 0.9 1.6 0.9 2.6v0.9q0 1.6-0.4 3q-0.5 1.4-1.3 2.5q-0.9 1.1-2 1.7q-1.2 0.6-2.4 0.6z" /><path class="s6" d="m157.9 81.8h-7.1c-0.7 0-1.5-0.4-2-1.1c-0.6-0.7-0.9-1.6-0.9-2.6c0-0.9 0.3-1.9 0.9-2.5c0.5-0.7 1.3-1.1 2-1.1h7.1c0.8 0 1.5 0.4 2.1 1.1c0.5 0.6 0.8 1.6 0.8 2.5c0 1-0.3 1.9-0.8 2.6c-0.6 0.7-1.3 1.1-2.1 1.1z" /><path class="s6" d="m154.4 86.4c-0.8 0-1.6-0.4-2.1-1.1c-0.6-0.6-0.9-1.6-0.9-2.5v-9.5c0-1 0.3-1.9 0.9-2.6c0.5-0.7 1.3-1.1 2.1-1.1c0.7 0 1.5 0.4 2 1.1c0.6 0.7 0.9 1.6 0.9 2.6v9.5c0 0.9-0.3 1.9-0.9 2.5c-0.5 0.7-1.3 1.1-2 1.1z" /><path class="s6" d="m23.5 146.3c-0.7 0-1.5-0.4-2-1.1c-0.6-0.7-0.9-1.6-0.9-2.6v-5.3c0-1 0.3-1.9 0.9-2.6c0.5-0.7 1.3-1.1 2-1.1c0.8 0 1.6 0.4 2.1 1.1c0.6 0.7 0.9 1.6 0.9 2.6v5.3c0 1-0.3 1.9-0.9 2.6c-0.5 0.7-1.3 1.1-2.1 1.1z" /><path class="s6" d="m36.1 146.3c-0.8 0-1.5-0.4-2.1-1.1c-0.5-0.7-0.9-1.6-0.9-2.6v-5.3c0-1 0.4-1.9 0.9-2.6c0.6-0.7 1.3-1.1 2.1-1.1c0.8 0 1.5 0.4 2.1 1.1c0.5 0.7 0.8 1.6 0.8 2.6v5.3c0 1-0.3 1.9-0.8 2.6c-0.6 0.7-1.3 1.1-2.1 1.1z" /><path class="s6" d="m21.6 119.3c-1.6 0-3.2-0.8-4.3-2.2c-1.2-1.4-1.8-3.4-1.8-5.4v-0.9c0-1 0.3-1.9 0.9-2.6c0.5-0.7 1.3-1.1 2-1.1c0.8 0 1.6 0.4 2.1 1.1c0.6 0.7 0.9 1.6 0.9 2.6v0.9c0 0.3 0.4 0.3 0.4 0v-0.9c0-1 0.3-1.9 0.8-2.6c0.6-0.7 1.3-1.1 2.1-1.1c0.8 0 1.5 0.4 2.1 1.1c0.5 0.7 0.9 1.6 0.9 2.6v0.9c0 2-0.7 4-1.8 5.4c-1.2 1.4-2.7 2.2-4.3 2.2z" /><path class="s6" d="m37.3 119.3q-1.2 0-2.4-0.6q-1.1-0.6-1.9-1.6q-0.9-1.1-1.3-2.5q-0.5-1.4-0.5-2.9v-0.9c0-1 0.3-1.9 0.8-2.6c0.6-0.7 1.3-1.1 2.1-1.1c0.8 0 1.6 0.4 2.1 1.1c0.6 0.7 0.9 1.6 0.9 2.6v0.9c0 0.3 0.4 0.3 0.4 0v-0.9c0-1 0.3-1.9 0.8-2.6c0.6-0.7 1.3-1.1 2.1-1.1c0.8 0 1.5 0.4 2.1 1.1c0.5 0.7 0.8 1.6 0.8 2.6v0.9c0 2-0.6 4-1.7 5.4c-1.2 1.4-2.7 2.2-4.3 2.2z" /><path class="s6" d="m33 89.3h-7.1c-0.8 0-1.5-0.3-2.1-1c-0.5-0.7-0.9-1.6-0.9-2.6c0-1 0.4-1.9 0.9-2.6c0.6-0.7 1.3-1.1 2.1-1.1h7.1c0.7 0 1.5 0.4 2 1.1c0.6 0.7 0.9 1.6 0.9 2.6c0 1-0.3 1.9-0.9 2.6c-0.5 0.7-1.3 1-2 1z" /><path class="s6" d="m29.4 93.7c-0.8 0-1.5-0.4-2.1-1.1c-0.5-0.6-0.8-1.6-0.8-2.5v-8.8c0-1 0.3-1.9 0.8-2.6c0.6-0.7 1.3-1 2.1-1c0.8 0 1.6 0.3 2.1 1c0.6 0.7 0.9 1.6 0.9 2.6v8.8c0 0.9-0.3 1.9-0.9 2.5c-0.5 0.7-1.3 1.1-2.1 1.1z" /><path fill-rule="evenodd" class="s6" d="m35.9 56.2h-9.4c-0.8 0-1.5-0.4-2.1-1c-0.6-0.7-0.9-1.7-0.9-2.6v-14.9h-12.1c-0.8 0-1.6-0.4-2.1-1c-0.6-0.7-0.9-1.7-0.9-2.6v-11.7c0-1 0.3-1.9 0.9-2.6c0.5-0.7 1.3-1.1 2.1-1.1h12.1v-15c0-1 0.3-1.9 0.9-2.6c0.6-0.7 1.3-1.1 2.1-1.1h9.4c0.8 0 1.5 0.4 2.1 1.1c0.5 0.7 0.8 1.6 0.8 2.6v15h12c0.8 0 1.5 0.4 2.1 1.1c0.5 0.7 0.8 1.6 0.8 2.6v11.7c0 0.9-0.3 1.9-0.8 2.6c-0.6 0.6-1.3 1-2.1 1h-12v14.9c0 0.9-0.3 1.9-0.8 2.6c-0.6 0.6-1.3 1-2.1 1zm-6.5-7.3h3.6v-14.8c0-1 0.3-1.9 0.8-2.6c0.6-0.7 1.3-1.1 2.1-1.1h12v-4.4h-12c-0.8 0-1.5-0.3-2.1-1c-0.5-0.7-0.8-1.6-0.8-2.6v-15.1h-3.6v15.1c0 1-0.3 1.9-0.8 2.6c-0.6 0.7-1.3 1-2.1 1h-12.2v4.4h12.2c0.8 0 1.5 0.4 2.1 1.1c0.5 0.7 0.8 1.6 0.8 2.6z" /><path fill-rule="evenodd" class="s6" d="m184.4 155.1v12.6c0 2-0.4 2.7-2 2.7h-43.1v10.9c0 2-0.4 3.7-2 3.7h-90.2c-1.6 0-2-1.7-2-3.7v-10.9h-43.1c-1.6 0-2-0.7-2-2.7v-9.5c0-10.4 6.1-19.4 14.5-19.7h5.5c-6.3-2.4-10.8-11.2-11.8-20c-1.5-0.3-2.8-1.3-3.8-2.8c-1-1.4-1.5-3.3-1.5-5.2c0.2-1.7 0.7-3.4 1.6-4.8c0.8-1.4 2-2.4 3.3-3v-16.3c0.1-2.7 0.9-5.3 2.2-7.4c1.3-2.1 3.2-3.6 5.3-4.3l11-3.4c2-0.7 4.1-0.7 6.1 0l11.1 3.4c2.2 0.7 4 2.2 5.4 4.3c1.3 2.1 2.1 4.7 2.1 7.4v16.6c1.3 0.5 2.5 1.6 3.4 3c0.9 1.3 1.4 3 1.5 4.8c0 1.9-0.5 3.8-1.5 5.2c-1 1.5-2.4 2.5-4 2.8c-0.6 5.7-2.7 11-6.1 15.1l-0.4 0.5l-5.7 4.4h9.3c4.1-7.4 11.7-14.7 20-14.7h11v-2.6c-3.9-2-7.4-4.9-10.4-8.6c-5.4-6.8-8.6-15.8-9.1-25.3c-2.2-0.1-4.4-1.3-5.9-3.3c-1.6-2.1-2.5-4.8-2.5-7.6c0-1.5 0.2-2.9 0.6-4.2c0.5-1.4 1.1-2.6 2-3.6c1.5-1.9 3.5-3 5.6-3.2v-19c0-0.7 1.6-13.4 10.4-18.7c0.6-1.4 1.3-2.6 2.2-3.7c2.4-3 5.7-4.8 9.2-4.8h20.8c4.3 0 8.4 1.6 12 4.4c3.5 2.8 6.4 6.9 8.2 11.6c1.5 4.2 2.1 8.7 2 13.2v17c5.9 0.8 8.6 5.4 8.6 11c0.2 2.8-0.5 5.6-2 7.8c-0.7 0.9-1.6 1.7-2.5 2.3c-1 0.5-2.1 0.8-3.1 0.8c-0.7 7.1-2.8 13.8-6 19.6c-3.3 5.8-7.6 10.5-12.7 13.8v3.1h11c6.9 0 13.1 4.9 17.5 9.8h5.8c-5.4-2.2-10-6.8-12.9-12.9c-2.3-4.9-3.4-10.5-3.3-16.1c0.2-5.6 1.6-11.1 4.1-15.8c1.3-2.7 3.1-5.1 5.3-6.8v-3.4c-0.1-2.8 0.6-5.5 1.9-7.8c1.3-2.2 3.2-3.8 5.3-4.6l10.8-3.7c2.1-0.7 4.3-0.7 6.3 0l11.2 3.7c2.1 0.8 4 2.4 5.4 4.6c1.4 2.3 2.2 5 2.2 7.8v3.6c1.9 1.7 3.5 3.9 4.7 6.3c2.5 4.9 3.8 10.4 3.8 16.1c0 5.7-1.2 11.2-3.6 16.1c-2.8 6.1-7.3 10.7-12.7 12.9h1.2c8.4 0 14.5 10 14.5 21.2zm-27.6-17.5q1.1-0.7 1.9-1.8l-3.7 1h-3.4q0.6 0.7 1.4 1.1q0.7 0.4 1.6 0.4q1.2-0.1 2.2-0.7zm21.7-27.3c-0.9 1.1-1.9 1.8-3.1 2.2c-0.4 4-1.4 7.9-3 11.4q2.3-2.7 3.9-6.1c1.1-2.3 1.9-4.9 2.2-7.5zm-2.8-17.3q-0.1-0.2-0.1-0.5v3.2l1.7 0.9q-0.5-1.9-1.6-3.6zm-35.7-17.3c-0.5 0.9-0.8 2-0.7 3.2v14.3c2-0.2 3.9-0.9 5.6-2.3c1.7-1.3 3.1-3.1 4.2-5.2c0.2-0.5 0.5-0.9 0.9-1.2q0.6-0.4 1.2-0.3q0.7 0 1.3 0.4q0.5 0.4 0.9 1.1c1.8 2.8 4.2 4.9 6.9 6.1c2.7 1.2 5.6 1.4 8.4 0.7v-8c0-0.3 1.9-0.5 1.9-0.5v-5.1c0-1.2-0.4-2.4-1-3.3c-0.6-1-1.4-1.7-2.3-2.1l-11.4-3.6c-1-0.5-2.1-0.5-3.1 0l-10.8 3.6c-0.8 0.5-1.5 1.2-2 2.2zm-6.8 16.6c0 0.2-0.2 0.4-0.4 0.7q-1 1.8-1.6 3.9l2-1.2zm3.3 31.9c-1.6-3.6-2.7-7.6-3.1-11.7c-1.2-0.4-2.3-1.1-3.2-2.2c0.4 2.6 1.1 5.2 2.2 7.5c1.1 2.4 2.5 4.5 4.1 6.4zm2.8-14.9c-0.1 4.1 0.8 8.1 2.6 11.5c1.7 3.5 4.2 6.2 7.2 8h0.6c1.3 0.7 2.8 1 4.3 1l5.5-1.3l5.3-5.1c2.7-4 4.1-9.1 3.9-14.3v-9c-3.1 0.4-6.3 0-9.3-1.1c-3-1.1-5.8-3-8.2-5.5c-4.3 5.8-8 7-11.9 7zm-5.9 44.6c0.1-4.7-1.1-9.2-3.4-12.9c-2.5-4.3-6.2-7.2-10.4-8.3v13.2c1.7 0.5 3.2 1.6 4.4 3.1c1 1.1 1.8 2.5 2.4 4c0.6 1.5 0.9 3.1 0.9 4.8c-0.1 3.3-1.1 6.4-2.9 8.7c-1.5 1.7-3.3 2.9-5.2 3.3c-1.9 0.5-3.9 0.3-5.8-0.7c-1.8-0.9-3.4-2.5-4.5-4.5c-1.1-2-1.7-4.4-1.8-6.8c0-2.6 0.6-5.2 1.8-7.3c1.2-2.2 2.9-3.8 4.9-4.6v-14.4h-10.2l-9.4 11.9v34.3h39.2zm-33.4-26.7v-3.7q-4.1 1.2-8.4 1.2q-3.7 0-7.3-0.7v3.2l7.9 9zm14.7-58.9c-6-4.5-11.2-10.3-15.5-17.1h-12c-2.7 4.3-6.1 7.9-10 10.4c-3.9 2.6-8.1 4.1-12.5 4.5v1.7l0.6 0.5zm-15.7 7.3c0.1 2.5 0.9 4.9 2.4 6.6c1.5 1.8 3.4 2.8 5.4 2.9c2.1-0.1 4-1.1 5.5-2.9c1.5-1.7 2.4-4.1 2.6-6.6zm-9.1 0.9h3.2v-1.4h-3.2zm-21.7-1c0.1 2.5 0.9 4.9 2.4 6.7c1.4 1.7 3.4 2.7 5.4 2.8c2.1-0.1 4-1.1 5.5-2.8c1.5-1.8 2.4-4.2 2.6-6.7zm57.7-1.1c-0.4-0.6-1-1.1-1.6-1.3v7.3q0.4-0.1 0.7-0.3q0.4-0.3 0.6-0.7c0.6-0.7 1-1.7 1-2.7c0-0.8-0.3-1.6-0.7-2.3zm-48.2-46.9q-1.3 0.7-2.3 2c-0.6 0.7-1.1 1.7-1.4 2.7h-0.2c-0.4 1-0.6 2.2-0.5 3.4c0 1.1 0.2 2.2 0.6 3.3c0.4 1 0.9 2 1.6 2.7q1 1.2 2.3 1.8q1.3 0.6 2.7 0.5h20c0.8 0 1.2 0.9 1.8 1.9c4.5 6.2 9.7 11.7 15.3 16.3v-13.4c0.1-3.3-0.3-6.6-1.4-9.7c-1.2-3.6-3.3-6.7-6-8.9c-2.6-2.1-5.7-3.3-8.9-3.3h-20.8q-1.4 0-2.8 0.7zm-13.1 20v11.2c5.2-0.3 10.1-2.6 14.2-6.6c-2.8-0.4-5.3-1.9-7.4-4.3c-2-2.3-3.3-5.4-3.8-8.8c-1.5 2.6-2.5 5.5-3 8.5zm-7.6 31.6c0.4 0.7 1.1 1.2 1.7 1.3v-7.3l-1.5 0.9c-0.5 0.8-0.8 1.7-0.8 2.7c-0.1 0.9 0.1 1.7 0.6 2.4zm15.5 28.5c3 3.7 6.6 6.4 10.6 8.1c5.8 2.4 12.1 2.2 17.8-0.5c5-2.4 9.4-6.7 12.5-12.2c3-5.5 4.7-12 4.8-18.7c-1.3 2.2-3 4.1-5 5.4c-2 1.2-4.2 1.9-6.4 1.9c-2.4-0.2-4.7-1-6.8-2.6c-2-1.5-3.7-3.6-5-6.2h-7.2c-1.2 2.6-2.9 4.8-5 6.3c-2.1 1.5-4.4 2.4-6.8 2.5c-2.2 0-4.4-0.6-6.4-1.9c-1.9-1.2-3.7-3-5-5.2c0.1 8.7 2.9 17 7.9 23.1zm-39.6 34.1h-6.3l3.1 3.7zm-18.4-58.2c-0.5 0.8-0.8 1.8-0.8 2.9v7.8c3.9-2.4 8-4.9 12.9-4.1q0.8 0 1.4 0.4q0.6 0.5 1 1.3c0.8 1.2 6.3 11.2 16.1 6.5v-11.9c-0.1-1.1-0.4-2.1-0.9-3c-0.6-0.8-1.4-1.4-2.3-1.6l-11.1-3.4q-1.6-0.4-3.2 0l-11 3.4c-0.8 0.3-1.5 0.8-2.1 1.7zm2.2 43.1c1.9 3.3 4.7 5.6 7.8 6.8c3.2 1.5 6.8 1.5 10 0l6.1-4.9c1.4-1.7 2.5-3.7 3.3-6c0.8-2.2 1.2-4.7 1.2-7.1v-9.5q-2.4 0.9-4.9 1c-3-0.2-6-1.1-8.6-2.8c-2.7-1.7-5.1-4.1-6.9-7c-4.9 0.3-9 4.4-11 6.4v11.9c0 4 1 8 3 11.2zm-10.9 36.5h19.7v-11.5l-3.2-5.6h-7.8c-5.3 0-8.7 5.6-8.7 12.2zm39.3 0v-9.2q-0.4-3.9-0.2-7.8h-7.7l-5.9 6.6v10.4zm5.9 14.6h37.3v-35.8l-7.5-10.4h-8.2v3.4c2.3 1.2 4.3 3.2 5.7 5.8c1.4 2.6 2.2 5.7 2.2 8.8v15.8c0 2-1 2.7-2.6 2.7h-4.5c-0.8 0-1.5-0.4-2.1-1.1c-0.5-0.7-0.9-1.6-0.9-2.6c0-0.9 0.4-1.9 0.9-2.5c0.6-0.7 1.3-1.1 2.1-1.1h1.2v-11.2q0-1.5-0.4-2.9q-0.4-1.4-1.3-2.5q-0.8-1.1-1.9-1.7q-1.1-0.7-2.3-0.7q-1.2 0-2.3 0.5q-1.1 0.6-1.8 1.7q-0.9 1.1-1.4 2.6q-0.4 1.4-0.4 3v11.2h0.6c0.8 0 1.5 0.4 2.1 1.1c0.5 0.6 0.8 1.6 0.8 2.5c0 1-0.3 1.9-0.8 2.6c-0.6 0.7-1.3 1.1-2.1 1.1h-3.7c-1.6 0-2.8-0.7-2.8-2.7v-15.8c0.1-2 0.4-4 1.1-5.9c0.7-1.8 1.6-3.5 2.8-4.8c0.7-1.2 1.6-2.1 2.6-2.8c1-0.7 2.2-1.1 3.3-1.1v-2.5c-7.8 0.8-11.4 5.4-13.9 12.2c-1.2 2.9-1.8 6.1-1.8 9.3zm64.8-24.7q-0.8 0.4-1.4 1.1q-0.6 0.7-0.9 1.7q-0.3 0.9-0.3 1.9q0 1 0.3 1.9q0.3 0.9 0.9 1.5c0.8 0.9 1.8 1.4 2.8 1.4c1.1 0 2.1-0.5 2.9-1.4q0.6-0.6 1-1.5q0.3-0.9 0.3-1.9q0-1-0.3-2q-0.4-0.9-1-1.6q-0.5-0.8-1.3-1.1q-0.7-0.4-1.5-0.4q-0.8 0-1.5 0.4zm23.5 0.8v9.3h11.8v-18.3c-2-0.5-2.4-1.2-3.8-3.6h-9c0.9 4.1 1.2 8.4 1 12.6zm39.2 1.2c0-7-3.3-13.8-8.6-13.8h-7.7c-0.6 1-1.4 1.9-2.3 2.6q-1.4 1-3 1.3v18h21.6z" /><path class="s6" d="m105.1 149.6c0.5 0.6 0.8 1.6 0.8 2.5c0 1-0.3 1.9-0.8 2.6c-0.6 0.7-1.3 1.1-2.1 1.1h-2.6c-0.8 0-1.5-0.4-2.1-1.1c-0.5-0.7-0.8-1.6-0.8-2.6c0-0.9 0.3-1.9 0.8-2.5c0.6-0.7 1.3-1.1 2.1-1.1h2.6c0.8 0 1.5 0.4 2.1 1.1zm0 9.7c0.5 0.7 0.8 1.6 0.8 2.6c0 0.9-0.3 1.9-0.8 2.6c-0.6 0.6-1.3 1-2.1 1h-2.6c-0.8 0-1.5-0.4-2.1-1c-0.5-0.7-0.8-1.7-0.8-2.6c0-1 0.3-1.9 0.8-2.6c0.6-0.7 1.3-1.1 2.1-1.1h2.6c0.8 0 1.5 0.4 2.1 1.1z" /></svg>