<svg version="1.2" xmlns="http://www.w3.org/2000/svg" viewBox="0 0 185 185" width="185" height="185"><defs><linearGradient id="P" gradientUnits="userSpaceOnUse"/><linearGradient id="g1" x1="89.6" y1="104.1" x2="89.6" y2="130.1" href="#P"><stop stop-color="#0169fe"/><stop offset="1" stop-color="#00d09c"/></linearGradient><linearGradient id="g2" x1="119.2" y1="-0.1" x2="151.3" y2="38.3" href="#P"><stop stop-color="#00d09c"/><stop offset="1" stop-color="#0169fe"/></linearGradient></defs><style>.s0{fill:#f2f2f2;stroke:#22252a;stroke-width:4}.s1{fill:#0169fe;stroke:#22252a;stroke-width:4}.s2{fill:#806749}.s3{fill:#e9e9ea}.s4{fill:#a78966}.s5{fill:#6a563d}.s6{fill:#b39a7c}.s7{fill:#3e3d42}.s8{fill:#957856}.s9{fill:#898890}.s10{fill:#57565c}.s11{fill:url(#g1)}.s12{fill:#d8d7da}.s13{fill:#f7caa5}.s14{fill:#91dc5a}.s15{fill:#f0d0b4}.s16{fill:#ff9811}.s17{fill:#0d0f10}.s18{fill:#000000}.s19{fill:#22252a}.s20{fill:url(#g2)}</style><path class="s0" d="m97.4 52.9v-42.2h76.9v42.2z" /><path class="s1" d="m55.8 28.9c0 10.1-8.2 18.2-18.2 18.2c-10.1 0-18.3-8.1-18.3-18.2c0-10.1 8.2-18.2 18.3-18.2c10 0 18.2 8.1 18.2 18.2z" /><path class="s2" d="m133 176.3h-8.7v-34.7h8.7z" /><path class="s3" d="m156.1 107v17.3c0 1.5-0.6 3-1.7 4.1c-1.1 1.1-2.6 1.7-4.1 1.7h-5.8c-1.5 0-3-0.6-4.1-1.7c-1-1.1-1.6-2.6-1.6-4.1v-17.3z" /><path class="s4" d="m176.3 141.6h-57.8v-11.5h57.8z" /><path class="s2" d="m170.5 176.3h-8.6v-34.7h8.6z" /><path class="s5" d="m80.9 164.8h-57.8v-14.5h57.8z" /><path class="s6" d="m83.8 150.3h-69.3v-54.9h69.3z" /><path class="s7" d="m28.9 164.8v11.5h-11.6v-11.5h5.8z" /><path class="s8" d="m23.1 150.3v14.5h-5.8h-8.6v-57.8h5.8h8.6z" /><path class="s9" d="m69.4 164.8v11.5h-14.5v-11.5v-14.5v-11.6h8.7h5.8v11.6z" /><path class="s10" d="m54.9 138.8v11.5h-8.6h-5.8v-11.6z" /><path class="s11" d="m109.8 130.1h-40.4v-26h40.4z" /><path class="s9" d="m95.4 138.8v37.5h-14.5v-11.5v-14.5v-11.6z" /><path class="s12" d="m109.8 138.8l-46.2-0.1v-8.6h46.2z" /><path class="s13" d="m52 127.2h17.4v2.9h-5.8v8.6h-26c-1.6 0-3-0.6-4.1-1.6c-1.1-1.1-1.7-2.6-1.7-4.1v-11.6h17.3v5.8z" /><path class="s14" d="m69.4 109.8v17.4h-20.3v-5.8h-17.3v-5.8c0-1.5 0.6-3 1.7-4.1c1.1-1 2.5-1.7 4.1-1.7z" /><path class="s10" d="m80.9 138.8v11.5h-11.5v-11.6h2.9z" /><path class="s15" d="m60.7 109.8h-11.6v-14.4h11.6z" /><path class="s16" d="m57.8 75.2c1.5 0 3 0.6 4.1 1.7c1.1 1 1.7 2.5 1.7 4v2.9h-17.3v-8.6z" /><path class="s13" d="m46.3 83.8h17.3v8.7c0 2.3-0.9 4.5-2.5 6.1c-1.7 1.7-3.9 2.6-6.2 2.6c-2.3 0-4.5-0.9-6.1-2.6c-1.6-1.6-2.5-3.8-2.5-6.1z" /><path fill-rule="evenodd" class="s17" d="m178.4 128c0.5 0.6 0.8 1.3 0.8 2.1v11.5c0 0.8-0.3 1.5-0.8 2.1c-0.6 0.5-1.3 0.8-2.1 0.8h-2.9v31.8c0 0.8-0.3 1.5-0.8 2.1c-0.6 0.5-1.3 0.8-2.1 0.8h-8.6c-0.8 0-1.5-0.3-2.1-0.8c-0.5-0.6-0.8-1.3-0.8-2.1v-31.8h-23.1v31.8c0 0.8-0.3 1.5-0.9 2.1c-0.5 0.5-1.3 0.8-2 0.8h-8.7c-0.8 0-1.5-0.3-2-0.8c-0.6-0.6-0.9-1.3-0.9-2.1v-31.8h-2.9c-0.8 0-1.5-0.3-2-0.8c-0.6-0.6-0.9-1.3-0.9-2.1v-11.5c0-0.8 0.3-1.5 0.9-2.1c0.5-0.5 1.2-0.8 2-0.8h17.9q-0.5-1.4-0.5-2.9v-2.9h-5.8c-0.8 0-1.5-0.3-2.1-0.8c-0.5-0.6-0.8-1.3-0.8-2.1v-11.5c0-0.8 0.3-1.5 0.8-2.1c0.6-0.5 1.3-0.8 2.1-0.8h26c0.8 0 1.5 0.3 2 0.8c0.6 0.6 0.9 1.3 0.9 2.1v17.3q0 1.5-0.5 2.9h17.8c0.8 0 1.5 0.3 2.1 0.8zm-42.5-18.2h-2.9v5.8h2.9zm5.7 14.5c0 0.7 0.3 1.5 0.9 2c0.5 0.6 1.3 0.9 2 0.9h5.8c0.8 0 1.5-0.3 2.1-0.9c0.5-0.5 0.8-1.3 0.8-2v-14.5h-11.6zm-11.5 20.3h-2.9v28.9h2.9zm37.6 0h-2.9v28.9h2.9zm5.7-11.6h-52v5.8h52zm-34.4-37.9q0.2-0.3 0.2-0.7q0-0.3-0.2-0.6c-0.5-1-0.7-2.1-0.7-3.2c0-1.1 0.2-2.2 0.7-3.2q0.2-0.3 0.2-0.7h5.8c0 1.1-0.2 2.2-0.8 3.2q-0.2 0.3-0.1 0.7q-0.1 0.4 0.1 0.7c0.5 1 0.8 2 0.8 3.1c0 1.2-0.3 2.2-0.8 3.2q-0.2 0.3-0.1 0.7h-5.8c0-1.1 0.2-2.2 0.7-3.2zm11.6 0q0.2-0.3 0.2-0.7q0-0.3-0.2-0.6c-0.5-1-0.8-2.1-0.8-3.2c0-1.1 0.3-2.2 0.8-3.2q0.2-0.3 0.2-0.7h5.8c0 1.1-0.3 2.2-0.8 3.2q-0.2 0.3-0.2 0.7q0 0.4 0.2 0.7c0.5 1 0.8 2 0.8 3.1c0 1.2-0.3 2.2-0.8 3.2q-0.2 0.3-0.2 0.7h-5.8c0-1.1 0.3-2.2 0.8-3.2zm-38.7 6.9c0.5 0.6 0.8 1.3 0.8 2.1v34.7c0 0.7-0.3 1.5-0.8 2c-0.6 0.6-1.3 0.9-2.1 0.9h-11.5v34.7c0 0.7-0.3 1.5-0.9 2c-0.5 0.5-1.2 0.8-2 0.8h-14.5c-0.7 0-1.5-0.3-2-0.8c-0.5-0.5-0.9-1.3-0.9-2v-8.7h-5.7v8.7c0 0.7-0.3 1.5-0.9 2c-0.5 0.5-1.3 0.8-2 0.8h-14.5c-0.7 0-1.5-0.3-2-0.8c-0.6-0.5-0.9-1.3-0.9-2v-8.7h-20.2v8.7c0 0.7-0.3 1.5-0.8 2c-0.6 0.5-1.3 0.8-2.1 0.8h-11.6c-0.7 0-1.5-0.3-2-0.8c-0.5-0.5-0.8-1.3-0.8-2v-8.7h-5.8c-0.8 0-1.5-0.3-2.1-0.9c-0.5-0.5-0.8-1.2-0.8-2v-57.8c0-0.8 0.3-1.5 0.8-2.1c0.6-0.5 1.3-0.8 2.1-0.8h2.9v-8.7c0-0.8 0.3-1.5 0.8-2c0.6-0.6 1.3-0.9 2.1-0.9h28.9v-17.3c0-0.8 0.3-1.5 0.8-2.1c0.5-0.5 1.3-0.8 2-0.8h11.6c2.3 0 4.5 0.9 6.1 2.5c1.7 1.7 2.6 3.9 2.6 6.2v11.5h17.3c0.8 0 1.5 0.3 2.1 0.9c0.5 0.5 0.8 1.2 0.8 2v5.8h23.1c0.8 0 1.5 0.3 2.1 0.8zm-48.3 5h2.9v-2.9c0-0.8 0.3-1.5 0.8-2.1c0.6-0.5 1.3-0.8 2.1-0.8h11.5v-2.9h-16q-0.6 1-1.3 1.8zm-14.5-26h11.6c0-0.8-0.3-1.5-0.8-2.1c-0.6-0.5-1.3-0.8-2.1-0.8h-8.7zm0 11.6c0 1.5 0.6 3 1.7 4c1.1 1.1 2.6 1.7 4.1 1.7c1.6 0 3-0.6 4.1-1.7c1.1-1 1.7-2.5 1.7-4v-5.8h-11.6zm2.9 11.1v3.3h5.8v-3.3c-1.9 0.6-3.9 0.6-5.8 0zm-14.4 9.1c-0.8 0-1.5 0.3-2.1 0.9c-0.5 0.5-0.8 1.2-0.8 2v2.9h11.5v-2.9h5.8v8.7h14.5v-11.6zm-20.2-8.7h5.7c0.8 0 1.5 0.3 2.1 0.9c0.5 0.5 0.8 1.3 0.8 2v40.5h11.6v-5.8c-2.3 0-4.5-0.9-6.1-2.5c-1.7-1.7-2.6-3.9-2.6-6.2v-17.3c0-2.3 0.9-4.5 2.6-6.1c1.6-1.7 3.8-2.6 6.1-2.6h8.7v-6.9q-0.8-0.8-1.3-1.7h-27.6zm2.8 57.8v-52.1h-8.6v52.1zm5.7 5.7h-5.7v5.8h5.7zm26.1-14.4h-26.1v8.6h26.1zm0-11.5h-8.7v5.8h8.7zm8.6-5.8v-5.8h-11.5c-0.8 0-1.5-0.3-2.1-0.8c-0.5-0.6-0.8-1.3-0.8-2.1v-2.9h-11.6v8.7c0 0.8 0.3 1.5 0.9 2c0.5 0.6 1.2 0.9 2 0.9zm5.8 5.8h-8.7v31.8h8.7zm11.6 11.5h-5.8v8.7h5.8zm0-11.6h-5.8v5.8h5.8zm14.4 0h-8.7v31.8h8.7zm14.5-8.7h-40.5v2.9h40.5zm0-26h-34.7v20.2h34.7z" /><path class="s18" d="m89.6 118.5c-1.6 0-2.9-1.3-2.9-2.9c0-1.6 1.3-2.9 2.9-2.9c1.6 0 2.9 1.3 2.9 2.9c0 1.6-1.3 2.9-2.9 2.9z" /><path class="s19" d="m37.6 31.8h-8.7v-5.8h5.8v-8.7h5.8v11.6c0 0.8-0.3 1.5-0.9 2.1c-0.5 0.5-1.3 0.8-2 0.8z" /><path fill-rule="evenodd" class="s20" d="m123.9 23.7q1.3 0.3 2 1.3q0.7 0.9 0.7 2.1q0 1.9-1.3 2.9q-1.2 1-3.5 1h-7.4v-14.2h7.2q2.2 0 3.4 1q1.3 0.9 1.3 2.7q0 1.3-0.7 2.1q-0.6 0.9-1.7 1.1zm-5.1-1.3h1.8q0.6 0 0.8-0.3q0.3-0.2 0.3-0.7q0-0.5-0.3-0.8q-0.2-0.2-0.8-0.2h-1.8zm2.1 5q0.6 0 0.8-0.2q0.3-0.2 0.3-0.7q0-1.1-1.1-1.1h-2.1v2zm24.3-10.6v14.2h-4.4v-7.1l-2.2 7.1h-3.8l-2.2-7.1v7.1h-4.4v-14.2h5.4l3.1 8.5l3.1-8.5zm7.5 14.3q-2.5 0-4.2-1.1q-1.6-1.2-1.8-3.5h4.7q0.1 1.2 1.1 1.2q0.4 0 0.6-0.2q0.3-0.2 0.3-0.5q0-0.5-0.6-0.8q-0.5-0.3-1.6-0.7q-1.4-0.5-2.3-1q-0.9-0.4-1.5-1.3q-0.7-0.9-0.6-2.3q0-1.4 0.7-2.3q0.7-1 1.9-1.5q1.2-0.5 2.8-0.5q2.6 0 4.1 1.2q1.5 1.2 1.6 3.4h-4.8q0-0.6-0.3-0.9q-0.2-0.2-0.6-0.2q-0.3 0-0.5 0.2q-0.2 0.1-0.2 0.5q0 0.5 0.5 0.8q0.6 0.3 1.7 0.7q1.4 0.5 2.2 1q0.9 0.4 1.6 1.3q0.6 0.8 0.6 2q0 1.3-0.6 2.4q-0.7 1-1.9 1.6q-1.2 0.5-2.9 0.5z" /><path fill-rule="evenodd" class="s19" d="m110.7 36.2q0.5 0 0.8 0.2q0.3 0.1 0.5 0.5q0.2 0.3 0.2 0.7q0 0.4-0.2 0.7q-0.2 0.3-0.5 0.5q-0.3 0.2-0.8 0.2h-1v-2.8zm-0.1 2.2q0.4 0 0.6-0.2q0.3-0.2 0.3-0.6q0-0.4-0.3-0.6q-0.2-0.2-0.6-0.2h-0.3v1.6zm2.6-2.2v2.8h-0.7v-2.8zm1.5 2.8q-0.3 0-0.5-0.1q-0.3-0.1-0.4-0.3q-0.2-0.2-0.2-0.4h0.8q0 0.1 0.1 0.2q0.1 0.1 0.2 0.1q0.2 0 0.2-0.1q0.1-0.1 0.1-0.2q0-0.1 0-0.2q-0.1 0-0.2-0.1q-0.1 0-0.3-0.1q-0.3-0.1-0.4-0.1q-0.2-0.1-0.3-0.3q-0.2-0.1-0.2-0.4q0-0.4 0.3-0.6q0.3-0.2 0.8-0.2q0.4 0 0.7 0.2q0.3 0.2 0.3 0.6h-0.7q0-0.1-0.1-0.2q-0.1-0.1-0.3-0.1q-0.1 0-0.2 0.1q0 0 0 0.2q0 0.1 0.1 0.2q0.1 0 0.4 0.1q0.3 0.1 0.4 0.2q0.2 0.1 0.3 0.3q0.1 0.1 0.1 0.4q0 0.2-0.1 0.4q-0.1 0.2-0.3 0.3q-0.3 0.1-0.6 0.1zm2.1-2.3v0.6h1v0.5h-1v0.7h1.1v0.5h-1.7v-2.8h1.7v0.5zm4 2.3h-0.7l-1.2-1.7v1.7h-0.6v-2.8h0.6l1.2 1.7v-1.7h0.7zm-2.1-3q0.1-0.6 0.6-0.6q0.1 0 0.1 0q0.1 0 0.2 0.1q0.1 0 0.1 0.1q0 0 0.1 0q0.1 0 0.2-0.2h0.3q-0.1 0.6-0.5 0.6q-0.1 0-0.2 0q-0.1-0.1-0.1-0.1q-0.1-0.1-0.2-0.1q0 0-0.1 0q-0.1 0-0.1 0.2zm3.8 3q-0.3 0-0.7-0.2q-0.3-0.1-0.5-0.5q-0.2-0.3-0.2-0.7q0-0.4 0.2-0.8q0.2-0.3 0.5-0.5q0.4-0.2 0.7-0.2q0.4 0 0.8 0.2q0.3 0.2 0.5 0.5q0.2 0.4 0.2 0.8q0 0.4-0.2 0.7q-0.2 0.4-0.5 0.5q-0.4 0.2-0.8 0.2zm0-0.6q0.4 0 0.6-0.2q0.2-0.3 0.2-0.6q0-0.4-0.2-0.6q-0.2-0.2-0.6-0.2q-0.3 0-0.5 0.2q-0.2 0.2-0.2 0.6q0 0.4 0.2 0.6q0.2 0.2 0.5 0.2zm5.1-2.2l-1 1.9v0.9h-0.6v-0.9l-1-1.9h0.8l0.5 1.2l0.6-1.2zm2.1 0q0.5 0 0.8 0.2q0.3 0.1 0.5 0.5q0.2 0.3 0.2 0.7q0 0.4-0.2 0.7q-0.2 0.3-0.5 0.5q-0.3 0.2-0.8 0.2h-1v-2.8zm-0.1 2.2q0.4 0 0.6-0.2q0.3-0.2 0.3-0.6q0-0.4-0.3-0.6q-0.2-0.2-0.6-0.2h-0.3v1.6zm2.6-1.7v0.6h0.9v0.5h-0.9v0.6h1v0.6h-1.7v-2.8h1.7v0.5zm2.5 2.3q-0.3 0-0.5-0.1q-0.3-0.1-0.4-0.3q-0.2-0.2-0.2-0.4h0.8q0 0.1 0.1 0.2q0.1 0.1 0.2 0.1q0.2 0 0.2-0.1q0.1-0.1 0.1-0.2q0-0.1 0-0.2q-0.1 0-0.2-0.1q-0.1 0-0.3-0.1q-0.3-0.1-0.4-0.1q-0.2-0.1-0.3-0.3q-0.2-0.2-0.2-0.4q0-0.4 0.3-0.6q0.3-0.3 0.8-0.3q0.4 0 0.7 0.3q0.3 0.2 0.3 0.6h-0.7q0-0.2-0.1-0.2q-0.1-0.1-0.3-0.1q-0.1 0-0.2 0.1q0 0 0 0.1q0 0.2 0.1 0.3q0.1 0 0.4 0.1q0.3 0.1 0.4 0.2q0.2 0.1 0.3 0.2q0.1 0.2 0.1 0.5q0 0.2-0.1 0.4q-0.1 0.2-0.3 0.3q-0.3 0.1-0.6 0.1zm3.2-0.5h-1l-0.2 0.5h-0.7l1-2.8h0.8l1 2.8h-0.7zm-0.2-0.5l-0.3-1.1l-0.4 1.1zm2.8 1l-0.6-1.1h-0.1v1.1h-0.7v-2.8h1.1q0.4 0 0.6 0.1q0.2 0.1 0.4 0.3q0.1 0.2 0.1 0.5q0 0.2-0.2 0.5q-0.1 0.2-0.5 0.3l0.7 1.1zm-0.8-1.6h0.5q0.2 0 0.3 0q0-0.1 0-0.3q0-0.2 0-0.3q-0.1-0.1-0.3-0.1h-0.5zm3.4 1.6l-0.6-1.1h-0.1v1.1h-0.7v-2.8h1.1q0.4 0 0.6 0.1q0.2 0.1 0.3 0.3q0.2 0.2 0.2 0.5q0 0.2-0.2 0.5q-0.2 0.2-0.5 0.3l0.7 1.1zm-0.8-1.6h0.5q0.1 0 0.2 0q0.1-0.1 0.1-0.3q0-0.2-0.1-0.3q-0.1 0-0.2 0h-0.5zm3.3 1.5q-0.4 0-0.7-0.2q-0.4-0.1-0.6-0.5q-0.2-0.3-0.2-0.7q0-0.4 0.2-0.8q0.2-0.3 0.6-0.5q0.3-0.2 0.7-0.2q0.4 0 0.7 0.2q0.3 0.2 0.5 0.5q0.2 0.4 0.2 0.8q0 0.4-0.2 0.7q-0.2 0.4-0.5 0.5q-0.3 0.2-0.7 0.2zm0-0.6q0.3 0 0.5-0.2q0.2-0.2 0.2-0.6q0-0.4-0.2-0.6q-0.2-0.2-0.5-0.2q-0.4 0-0.6 0.2q-0.2 0.2-0.2 0.6q0 0.4 0.2 0.6q0.2 0.2 0.6 0.2zm2.5 0.1h0.9v0.5h-1.6v-2.8h0.7zm1.9 0h0.9v0.5h-1.6v-2.8h0.7zm2.5 0.6q-0.4 0-0.7-0.2q-0.3-0.2-0.5-0.5q-0.2-0.4-0.2-0.8q0-0.4 0.2-0.7q0.2-0.3 0.5-0.5q0.3-0.2 0.7-0.2q0.4 0 0.8 0.2q0.3 0.2 0.5 0.5q0.2 0.3 0.2 0.7q0 0.4-0.2 0.8q-0.2 0.3-0.5 0.5q-0.4 0.2-0.8 0.2zm0-0.7q0.4 0 0.6-0.2q0.2-0.2 0.2-0.6q0-0.3-0.2-0.6q-0.2-0.2-0.6-0.2q-0.3 0-0.5 0.2q-0.2 0.2-0.2 0.6q0 0.4 0.2 0.6q0.2 0.2 0.5 0.2zm4.8-1.3q0 0.3-0.1 0.5q-0.1 0.2-0.3 0.3q-0.2 0.1-0.6 0.1h-0.4v1h-0.7v-2.8h1.1q0.3 0 0.6 0.1q0.2 0.2 0.3 0.4q0.1 0.2 0.1 0.4zm-1 0.4q0.2 0 0.3-0.1q0-0.1 0-0.3q0-0.1 0-0.2q-0.1-0.1-0.3-0.1h-0.4v0.7zm2.8 1.6q-0.4 0-0.8-0.2q-0.3-0.2-0.5-0.5q-0.2-0.4-0.2-0.8q0-0.4 0.2-0.7q0.2-0.3 0.5-0.5q0.4-0.2 0.8-0.2q0.4 0 0.7 0.2q0.3 0.2 0.5 0.5q0.2 0.3 0.2 0.7q0 0.4-0.2 0.8q-0.2 0.3-0.5 0.5q-0.3 0.2-0.7 0.2zm0-0.7q0.3 0 0.5-0.2q0.2-0.2 0.2-0.6q0-0.3-0.2-0.6q-0.2-0.2-0.5-0.2q-0.4 0-0.6 0.2q-0.2 0.2-0.2 0.6q0 0.4 0.2 0.6q0.2 0.2 0.6 0.2zm3.2 0.6l-0.6-1h-0.1v1h-0.7v-2.8h1.1q0.4 0 0.6 0.1q0.2 0.2 0.3 0.4q0.2 0.2 0.2 0.4q0 0.3-0.2 0.5q-0.2 0.2-0.5 0.3l0.7 1.1zm-0.8-1.5h0.5q0.1 0 0.2-0.1q0.1-0.1 0.1-0.3q0-0.1-0.1-0.2q-0.1-0.1-0.2-0.1h-0.5zm-51.3 6.1q0-0.4 0.2-0.7q0.2-0.3 0.5-0.5q0.3-0.2 0.7-0.2q0.5 0 0.9 0.3q0.3 0.2 0.4 0.7h-0.7q-0.1-0.2-0.2-0.3q-0.2-0.1-0.4-0.1q-0.3 0-0.5 0.2q-0.2 0.3-0.2 0.6q0 0.4 0.2 0.6q0.2 0.2 0.5 0.2q0.2 0 0.4-0.1q0.1 0 0.2-0.2h0.7q-0.1 0.4-0.4 0.7q-0.4 0.3-0.9 0.3q-0.4 0-0.7-0.2q-0.3-0.2-0.5-0.5q-0.2-0.4-0.2-0.8zm4.6 1.4l-0.6-1h-0.2v1h-0.6v-2.8h1.1q0.3 0 0.6 0.1q0.2 0.2 0.3 0.4q0.1 0.2 0.1 0.4q0 0.3-0.1 0.5q-0.2 0.2-0.5 0.3l0.7 1.1zm-0.8-1.5h0.4q0.2 0 0.3-0.1q0.1-0.1 0.1-0.3q0-0.1-0.1-0.2q-0.1-0.1-0.3-0.1h-0.4zm2.6-1.3v2.8h-0.7v-2.8zm1.6 2.9q-0.3 0-0.6-0.1q-0.2-0.1-0.4-0.3q-0.1-0.2-0.1-0.5h0.7q0 0.2 0.1 0.2q0.1 0.1 0.2 0.1q0.2 0 0.3 0q0.1-0.1 0.1-0.2q0-0.1-0.1-0.2q-0.1-0.1-0.2-0.1q-0.1-0.1-0.3-0.1q-0.2-0.1-0.4-0.2q-0.2-0.1-0.3-0.2q-0.1-0.2-0.1-0.5q0-0.4 0.3-0.6q0.2-0.2 0.7-0.2q0.5 0 0.7 0.2q0.3 0.2 0.3 0.6h-0.7q0-0.1-0.1-0.2q-0.1-0.1-0.2-0.1q-0.2 0-0.2 0.1q-0.1 0.1-0.1 0.2q0 0.1 0.1 0.2q0.2 0.1 0.4 0.2q0.3 0.1 0.5 0.2q0.1 0 0.3 0.2q0.1 0.2 0.1 0.4q0 0.2-0.1 0.4q-0.2 0.2-0.4 0.4q-0.2 0.1-0.5 0.1zm3.4-2.9v0.6h-0.7v2.2h-0.7v-2.2h-0.7v-0.6zm1 0v2.8h-0.7v-2.8zm2.2 2.3h-1l-0.2 0.5h-0.7l1-2.8h0.8l1 2.8h-0.7zm-0.2-0.5l-0.3-1l-0.4 1zm3.9 1h-0.7l-1.1-1.7v1.7h-0.7v-2.8h0.7l1.1 1.8v-1.8h0.7zm2.1-0.5h0.9v0.5h-1.6v-2.8h0.7zm1.9-1.7v0.6h0.9v0.5h-0.9v0.6h1v0.6h-1.7v-2.9h1.7v0.6zm2.8 2.3q-0.4 0-0.7-0.2q-0.3-0.2-0.5-0.5q-0.2-0.3-0.2-0.8q0-0.4 0.2-0.7q0.2-0.3 0.5-0.5q0.3-0.2 0.7-0.2q0.4 0 0.7 0.2q0.4 0.2 0.5 0.5q0.2 0.3 0.2 0.7q0 0.5-0.2 0.8q-0.1 0.3-0.5 0.5q-0.3 0.2-0.7 0.2zm0-0.6q0.3 0 0.5-0.3q0.2-0.2 0.2-0.6q0-0.3-0.2-0.6q-0.2-0.2-0.5-0.2q-0.3 0-0.5 0.2q-0.2 0.3-0.2 0.6q0 0.4 0.2 0.6q0.2 0.3 0.5 0.3zm4.3 0.6h-0.6l-1.2-1.8v1.8h-0.7v-2.9h0.7l1.2 1.8v-1.8h0.6zm1.2-2.2v0.6h0.9v0.5h-0.9v0.6h1.1v0.5h-1.8v-2.8h1.8v0.6zm2.1 1.7h0.9v0.5h-1.6v-2.8h0.7zm3.5 0.6l-0.6-1.1h-0.1v1.1h-0.7v-2.8h1.1q0.4 0 0.6 0.1q0.2 0.1 0.3 0.3q0.2 0.2 0.2 0.4q0 0.3-0.2 0.5q-0.2 0.3-0.5 0.4l0.7 1.1zm-0.8-1.6h0.5q0.2 0 0.2-0.1q0.1-0.1 0.1-0.2q0-0.2-0.1-0.3q0-0.1-0.2-0.1h-0.5zm3.3 1.6q-0.4 0-0.7-0.2q-0.4-0.2-0.6-0.5q-0.2-0.3-0.2-0.7q0-0.5 0.2-0.8q0.2-0.3 0.6-0.5q0.3-0.2 0.7-0.2q0.4 0 0.7 0.2q0.3 0.2 0.5 0.5q0.2 0.3 0.2 0.8q0 0.4-0.2 0.7q-0.2 0.3-0.5 0.5q-0.3 0.2-0.7 0.2zm0-0.6q0.3 0 0.5-0.3q0.2-0.2 0.2-0.5q0-0.4-0.2-0.6q-0.2-0.3-0.5-0.3q-0.3 0-0.6 0.3q-0.1 0.2-0.2 0.6q0.1 0.3 0.2 0.6q0.3 0.2 0.6 0.2zm5-2.2v2.8h-0.7v-1.7l-0.6 1.7h-0.6l-0.6-1.7v1.7h-0.7v-2.8h0.8l0.8 1.9l0.8-1.9zm1.2 0.5v0.6h0.9v0.5h-0.9v0.6h1v0.6h-1.7v-2.8h1.7v0.5zm2.9 2.3l-0.6-1.1h-0.1v1.1h-0.7v-2.8h1.1q0.4 0 0.6 0.1q0.2 0.1 0.3 0.3q0.2 0.2 0.2 0.4q0 0.3-0.2 0.5q-0.2 0.3-0.5 0.4l0.7 1.1zm-0.8-1.6h0.5q0.1 0 0.2-0.1q0.1-0.1 0.1-0.2q0-0.2-0.1-0.3q-0.1-0.1-0.2-0.1h-0.5zm3.3 1.6q-0.4 0-0.7-0.2q-0.4-0.2-0.6-0.5q-0.2-0.3-0.2-0.7q0-0.5 0.2-0.8q0.2-0.3 0.6-0.5q0.3-0.2 0.7-0.2q0.4 0 0.7 0.2q0.3 0.2 0.5 0.5q0.2 0.3 0.2 0.8q0 0.4-0.2 0.7q-0.2 0.3-0.5 0.5q-0.3 0.2-0.7 0.2zm0-0.6q0.3 0 0.5-0.2q0.2-0.3 0.2-0.6q0-0.4-0.2-0.6q-0.2-0.3-0.5-0.3q-0.4 0-0.6 0.3q-0.2 0.2-0.2 0.6q0 0.3 0.2 0.6q0.2 0.2 0.6 0.2z" /></svg>