<svg version="1.2" xmlns="http://www.w3.org/2000/svg" viewBox="0 0 185 185" width="185" height="185"><defs><linearGradient id="P" gradientUnits="userSpaceOnUse"/><linearGradient id="g1" x1="92.5" y1="29.2" x2="92.5" y2="155.8" href="#P"><stop stop-color="#00d09c"/><stop offset="1" stop-color="#0169fe"/></linearGradient></defs><style>.s0{fill:url(#g1)}.s1{fill:#22252a}</style><path class="s0" d="m92.5 155.8c-0.4 0-1.1-0.1-1.7-0.7l-59.8-59.8c-6.9-6.9-10.8-16.2-10.8-26c0-9.8 3.9-19 10.8-25.9l3.5-3.5c6.9-6.9 16.1-10.7 25.9-10.7c9.8 0 19 3.8 26 10.7l6.1 6.1l6.1-6.1c7-6.9 16.2-10.7 26-10.7c9.8 0 19 3.8 25.9 10.7l3.5 3.5c6.9 6.9 10.8 16.1 10.8 25.9c0 9.8-3.9 19.1-10.8 26l-59.8 59.8c-0.6 0.6-1.3 0.7-1.7 0.7z" /><path class="s1" d="m173 76.9c2.3 0.6 3.7 2.9 3.1 5.3c-2.2 8.4-6.7 16.1-12.9 22.3l-59.8 59.8c-3 3-6.8 4.5-10.9 4.5c-4.1 0-7.9-1.5-10.9-4.5l-17.9-17.9c-1.7-1.7-1.7-4.4 0-6.1c1.7-1.7 4.4-1.7 6.1 0l18 17.9c2.5 2.5 6.9 2.5 9.4 0l59.9-59.8c5.1-5.1 8.8-11.5 10.6-18.5c0.6-2.3 3-3.7 5.3-3zm1.6-25.1c0.8 2.3-0.3 4.8-2.5 5.6q-0.8 0.3-1.6 0.3c-1.7 0-3.4-1.1-4-2.8q-0.7-2-1.6-3.8c-1.1-2.1-0.2-4.7 1.9-5.8c2.2-1.1 4.8-0.2 5.8 2q1.1 2.2 2 4.5zm-11.4-17.6c1.7 1.7 1.7 4.4 0 6.1c-1.7 1.7-4.4 1.7-6.1 0l-3.5-3.4c-16-16.1-42-16.1-58 0c-1.7 1.6-4.5 1.6-6.2 0c-16-16.1-42-16.1-58 0l-3.5 3.4c-7.7 7.8-12 18.1-12 29c0 11 4.3 21.3 12 29.1l19.5 19.4c1.7 1.7 1.7 4.4 0 6.1c-0.9 0.9-2 1.3-3.1 1.3c-1.1 0-2.2-0.4-3.1-1.3l-19.4-19.4c-19.4-19.4-19.4-50.9 0-70.3l3.5-3.5c18.3-18.4 47.7-19.3 67.2-2.8c9-7.6 20.2-11.7 32.1-11.7c13.3 0 25.8 5.1 35.1 14.5z" /><path class="s1" d="m137 88.3c2.4 0 4.4 1.9 4.4 4.3c0 2.4-2 4.4-4.4 4.4h-27.2l-13.5 25.9c-0.7 1.4-2.2 2.3-3.8 2.3q-0.4 0-0.8-0.1c-1.8-0.3-3.2-1.8-3.5-3.7l-4.5-34.7l-2.1 7.8c-0.5 1.9-2.2 3.2-4.2 3.2h-23.4c-2.4 0-4.4-2-4.4-4.3c0-2.4 2-4.4 4.4-4.4h20.1l7-25.7c0.5-2 2.4-3.4 4.5-3.2c2 0.1 3.7 1.7 4 3.8l5.4 42.7l8.3-15.9c0.7-1.5 2.2-2.4 3.9-2.4zm-62.3 82.9c1.7 1.7 1.7 4.4 0 6.1c-0.8 0.8-1.9 1.3-3 1.3c-1.1 0-2.2-0.5-3.1-1.3l-30.7-30.7c-1.7-1.8-1.7-4.5 0-6.2c1.7-1.7 4.4-1.7 6.1 0zm-15.6-41.4c1.7 1.7 1.7 4.5 0 6.1c-0.8 0.9-1.9 1.3-3 1.3c-1.1 0-2.2-0.4-3.1-1.3l-2.2-2.2c-1.7-1.7-1.7-4.4 0-6.2c1.7-1.7 4.4-1.7 6.1 0zm-29.3-3.3c1.7 1.6 1.7 4.4 0 6.1c-0.8 0.8-1.9 1.3-3.1 1.3c-1.1 0-2.2-0.5-3-1.3l-3.1-3.2c-1.8-1.6-1.8-4.4 0-6.1c1.6-1.7 4.4-1.7 6.1 0z" /></svg>