<svg version="1.2" xmlns="http://www.w3.org/2000/svg" viewBox="0 0 70 70" width="70" height="70"><defs><linearGradient id="P" gradientUnits="userSpaceOnUse"/><linearGradient id="g1" x1="35" y1="1" x2="35" y2="69" href="#P"><stop stop-color="#00d09c"/><stop offset="1" stop-color="#0169fe"/></linearGradient><linearGradient id="g2" x1="47.1" y1="1" x2="47.1" y2="69" href="#P"><stop stop-color="#00d09c"/><stop offset="1" stop-color="#0169fe"/></linearGradient></defs><style>.s0{fill:url(#g1)}.s1{fill:url(#g2)}.s2{fill:#22252a}.s3{fill:#0d0f10}.s4{fill:#ffffff}.s5{fill:#dedede}</style><path class="s0" d="m69 35c0 3.7-3.1 6.8-4.2 10.1c-1 3.4-0.3 7.8-2.3 10.7c-2 2.9-6.3 3.5-9.1 5.6c-2.7 2.1-4.6 6.2-7.9 7.3c-3.2 1-7-1-10.5-1c-3.5 0-7.3 2-10.5 1c-3.3-1.1-5.2-5.2-7.9-7.3c-2.8-2.1-7.1-2.7-9.1-5.6c-2-2.9-1.3-7.3-2.3-10.7c-1.1-3.3-4.2-6.4-4.2-10.1c0-3.7 3.1-6.8 4.2-10.1c1-3.4 0.3-7.8 2.3-10.7c2-2.9 6.3-3.5 9.1-5.6c2.7-2.1 4.6-6.2 7.9-7.3c3.2-1 7 1 10.5 1c3.5 0 7.3-2 10.5-1c3.3 1.1 5.2 5.2 7.9 7.3c2.8 2.1 7.1 2.7 9.1 5.6c2 2.9 1.3 7.3 2.3 10.7c1.1 3.3 4.2 6.4 4.2 10.1z" /><path class="s1" d="m25.3 1.1c2.6-0.4 5.5 0.8 8.3 1.2q-0.6 0-1.3 0c-2.3 0-4.8-0.8-7-1.2zm43.7 33.9c0 3.7-3.1 6.8-4.2 10.1c-1 3.4-0.3 7.8-2.3 10.7c-2 2.9-6.3 3.5-9.1 5.6c-2.7 2.1-4.6 6.2-7.9 7.3c-1.1 0.3-2.3 0.3-3.5 0.2q0.4-0.1 0.8-0.2c3.3-1.1 5.1-5.2 7.9-7.3c2.8-2.1 7-2.7 9.1-5.6c1.9-2.9 1.2-7.3 2.3-10.7c1-3.3 4.1-6.4 4.1-10.1c0-3.7-3.1-6.8-4.1-10.1c-1.1-3.4-0.4-7.8-2.3-10.7c-2.1-2.9-6.3-3.5-9.1-5.6c-2.8-2.1-4.6-6.2-7.9-7.3q-0.4-0.1-0.8-0.2c1.2-0.1 2.4-0.1 3.5 0.2c3.3 1.1 5.2 5.2 7.9 7.3c2.8 2.1 7.1 2.7 9.1 5.6c2 2.9 1.3 7.3 2.3 10.7c1.1 3.3 4.2 6.4 4.2 10.1zm-35.4 32.7c-2.8 0.4-5.7 1.6-8.3 1.2c2.2-0.4 4.7-1.2 7-1.2q0.7 0 1.3 0z" /><path class="s2" d="m9.6 35c0-14 11.4-25.4 25.4-25.4c14 0 25.4 11.4 25.4 25.4c0 14-11.4 25.4-25.4 25.4c-14 0-25.4-11.4-25.4-25.4z" /><path class="s3" d="m60.4 35c0 14-11.4 25.4-25.4 25.4q-0.7 0-1.4-0.1c13.4-0.7 24-11.8 24-25.3c0-13.5-10.6-24.6-24-25.3q0.7-0.1 1.4-0.1c14 0 25.4 11.4 25.4 25.4z" /><path class="s4" d="m36.1 41.6c0-3 2.5-5.5 5.5-5.5c3.1 0 5.5 2.5 5.5 5.5c0 3.1-2.4 5.5-5.5 5.5c-3 0-5.5-2.4-5.5-5.5z" /><path class="s5" d="m43.8 36.6q1.1 0.4 1.8 1.3q0.8 0.8 1.2 1.9q0.4 1 0.3 2.2q-0.1 1.1-0.6 2.1q-0.5 1-1.4 1.8q-0.8 0.7-1.9 1q-1.1 0.3-2.3 0.2c1.4-0.2 2.6-0.8 3.5-1.8c0.9-1 1.4-2.3 1.4-3.7c0-1.3-0.5-2.6-1.4-3.6c-0.9-1-2.1-1.7-3.5-1.8q0.4-0.1 0.7-0.1q1.2 0 2.2 0.5z" /><path class="s5" d="m38.5 46.2q-0.8-0.6-1.4-1.5l7.6-7.6q0.9 0.6 1.5 1.4z" /><path class="s4" d="m22.9 28.4c0-3.1 2.4-5.5 5.5-5.5c3 0 5.5 2.4 5.5 5.5c0 3-2.5 5.5-5.5 5.5c-3.1 0-5.5-2.5-5.5-5.5z" /><path class="s5" d="m30.5 23.3q1.1 0.5 1.9 1.3q0.7 0.8 1.1 1.9q0.4 1.1 0.4 2.2q-0.1 1.1-0.6 2.2q-0.6 1-1.4 1.7q-0.9 0.7-2 1q-1.1 0.4-2.2 0.2c1.3-0.1 2.5-0.8 3.4-1.8c0.9-1 1.4-2.3 1.4-3.6c0-1.4-0.5-2.7-1.4-3.7c-0.9-1-2.1-1.6-3.4-1.8q0.3 0 0.7 0q1.1 0 2.1 0.4z" /><path class="s5" d="m25.3 32.9q-0.9-0.6-1.5-1.4l7.7-7.7q0.8 0.6 1.4 1.5z" /><path class="s4" d="m24.8 46.2q-0.3 0-0.6-0.1q-0.2-0.2-0.4-0.5q-0.1-0.3 0-0.6q0.1-0.3 0.3-0.5l20.4-20.4q0.3-0.3 0.7-0.3q0.4 0 0.7 0.3q0.3 0.3 0.3 0.7q0 0.4-0.3 0.7l-20.4 20.4q-0.1 0.2-0.3 0.3q-0.2 0-0.4 0z" /></svg>