<svg version="1.2" xmlns="http://www.w3.org/2000/svg" viewBox="0 0 162 52" width="162" height="52"><defs><linearGradient id="P" gradientUnits="userSpaceOnUse"/><linearGradient id="g1" x1="22.5" y1="-58" x2="135" y2="75" href="#P"><stop stop-color="#00d09c"/><stop offset="1" stop-color="#0169fe"/></linearGradient><linearGradient id="g2" x1="22.5" y1="-58" x2="135" y2="75" href="#P"><stop stop-color="#00d09c"/><stop offset="1" stop-color="#0169fe"/></linearGradient></defs><style>.s0{fill:url(#g1)}.s1{fill:url(#g2)}</style><path fill-rule="evenodd" class="s0" d="m38.1 25.6q4.5 1 6.9 4.3q2.5 3.3 2.5 7.5q0 6.5-4.3 10.1q-4.3 3.5-12.3 3.5h-26v-49.6h25.3q7.5 0 11.9 3.3q4.3 3.3 4.3 9.6q0 4.4-2.3 7.4q-2.2 2.9-6 3.9zm-17.7-4.8h6.1q2.1 0 3-0.9q1.1-0.8 1.1-2.6q0-1.8-1.1-2.6q-0.9-0.9-3-0.9h-6.1zm7.1 17.7q2.1 0 3.1-0.7q1-0.9 1-2.7q0-3.6-4.1-3.6h-7.1v7zm84.9-37.1v49.6h-15.5v-24.7l-7.6 24.7h-13.3l-7.7-24.7v24.7h-15.5v-49.6h19l10.9 29.8l10.7-29.8zm26.4 50.1q-8.9 0-14.7-4.1q-5.7-4.2-6.2-12.3h16.5q0.3 4.3 3.8 4.3q1.2 0 2.1-0.6q0.9-0.6 0.9-1.9q0-1.7-1.9-2.8q-1.9-1.1-5.9-2.5q-4.8-1.7-7.9-3.3q-3.1-1.6-5.3-4.7q-2.3-3-2.2-7.9q0-4.8 2.5-8.2q2.5-3.4 6.7-5.2q4.4-1.7 9.8-1.7q9.1 0 14.4 4.2q5.4 4.2 5.7 11.8h-16.8q0-2.1-1-3q-1-0.9-2.4-0.9q-1 0-1.6 0.7q-0.6 0.6-0.6 1.8q0 1.7 1.8 2.8q1.9 1.1 5.9 2.6q4.7 1.8 7.7 3.4q3.1 1.6 5.4 4.5q2.2 2.8 2.2 7.2q0 4.5-2.2 8.2q-2.3 3.5-6.6 5.6q-4.2 2-10.1 2z" /><path fill-rule="evenodd" class="s1" d="m38.1 25.6q4.5 1 6.9 4.3q2.5 3.3 2.5 7.5q0 6.5-4.3 10.1q-4.3 3.5-12.3 3.5h-26v-49.6h25.3q7.5 0 11.9 3.3q4.3 3.3 4.3 9.6q0 4.4-2.3 7.4q-2.2 2.9-6 3.9zm-17.7-4.8h6.1q2.1 0 3-0.9q1.1-0.8 1.1-2.6q0-1.8-1.1-2.6q-0.9-0.9-3-0.9h-6.1zm7.1 17.7q2.1 0 3.1-0.7q1-0.9 1-2.7q0-3.6-4.1-3.6h-7.1v7zm84.9-37.1v49.6h-15.5v-24.7l-7.6 24.7h-13.3l-7.7-24.7v24.7h-15.5v-49.6h19l10.9 29.8l10.7-29.8zm26.4 50.1q-8.9 0-14.7-4.1q-5.7-4.2-6.2-12.3h16.5q0.3 4.3 3.8 4.3q1.2 0 2.1-0.6q0.9-0.6 0.9-1.9q0-1.7-1.9-2.8q-1.9-1.1-5.9-2.5q-4.8-1.7-7.9-3.3q-3.1-1.6-5.3-4.7q-2.3-3-2.2-7.9q0-4.8 2.5-8.2q2.5-3.4 6.7-5.2q4.4-1.7 9.8-1.7q9.1 0 14.4 4.2q5.4 4.2 5.7 11.8h-16.8q0-2.1-1-3q-1-0.9-2.4-0.9q-1 0-1.6 0.7q-0.6 0.6-0.6 1.8q0 1.7 1.8 2.8q1.9 1.1 5.9 2.6q4.7 1.8 7.7 3.4q3.1 1.6 5.4 4.5q2.2 2.8 2.2 7.2q0 4.5-2.2 8.2q-2.3 3.5-6.6 5.6q-4.2 2-10.1 2z" /></svg>