<svg version="1.2" xmlns="http://www.w3.org/2000/svg" viewBox="0 0 50 50" width="50" height="50"><defs><linearGradient id="P" gradientUnits="userSpaceOnUse"/><linearGradient id="g1" x1="25" y1="43.8" x2="25" y2="6.2" href="#P"><stop stop-color="#22252a"/><stop offset="1" stop-color="#0d0f10"/></linearGradient></defs><style>.s0{fill:url(#g1)}</style><path fill-rule="evenodd" class="s0" d="m50 23v4c0 4.3-0.5 8.6-0.5 8.6c0 0-0.5 3.7-2 5.3c-1.9 2.2-4 2.2-5 2.3c-7 0.5-17.5 0.6-17.5 0.6c0 0-13-0.2-17-0.6c-1.1-0.2-3.6-0.1-5.5-2.3c-1.5-1.6-2-5.3-2-5.3c0 0-0.5-4.3-0.5-8.6v-4c0-4.3 0.5-8.7 0.5-8.7c0 0 0.5-3.6 2-5.3c1.9-2.1 4-2.1 5-2.2c7-0.6 17.5-0.6 17.5-0.6c0 0 10.5 0 17.5 0.6c1 0.1 3.1 0.1 5 2.2c1.5 1.7 2 5.3 2 5.3c0 0 0.5 4.4 0.5 8.7zm-15.6 2l-15.6-9.4v18.8z" /></svg>