<svg version="1.2" xmlns="http://www.w3.org/2000/svg" viewBox="0 0 450 450" width="450" height="450"><defs><linearGradient id="P" gradientUnits="userSpaceOnUse"/><linearGradient id="g1" x1="233.6" y1="46.8" x2="233.6" y2="260.6" href="#P"><stop offset=".2" stop-color="#22252a"/><stop offset="1" stop-color="#0d0f10"/></linearGradient><linearGradient id="g2" x1="225" y1="13.4" x2="225" y2="280.8" href="#P"><stop stop-color="#0d0f10"/><stop offset="1" stop-color="#22252a"/></linearGradient><linearGradient id="g3" x1="225" y1="143.5" x2="225" y2="429.6" href="#P"><stop stop-color="#0d0f10"/><stop offset="1" stop-color="#22252a"/></linearGradient></defs><style>.s0{fill:#0d0f10}.s1{fill:url(#g1)}.s2{fill:url(#g2)}.s3{fill:#e13332}.s4{fill:url(#g3)}</style><path class="s0" d="m314.2 67.7v109.8c0 24.5-24.7 47.4-45.3 62.3c-1.9 1.5-4 2.8-5.9 4.2c-0.3 0.2-0.7 0.4-0.9 0.6q-13.8 8.8-28.5 16c-14.1-6.8-80.5-41-80.5-80v-112.9c1.3 0 2.6 0.1 4 0.1c30.8 0 58.8-7.8 76.5-21c17.7 13.2 45.8 21 76.5 21c1.4 0 2.7-0.1 4.1-0.1z" /><path class="s1" d="m314.2 67.7v112.9c0 22.2-22.3 42.9-40.9 56.4c-3.4 2.5-7 4.8-10.3 7c-0.3 0.2-0.7 0.4-0.9 0.6q-13.8 8.8-28.5 16c-14.1-6.8-80.5-41-80.5-80v-112.9c1.3 0 2.6 0.1 4 0.1c30.8 0 58.8-7.8 76.5-21c17.7 13.2 45.8 21 76.5 21c1.4 0 2.7-0.1 4.1-0.1z" /><path fill-rule="evenodd" class="s2" d="m225 280.8c-1 0-2-0.3-2.9-0.7c-4.1-1.8-100.3-45.5-100.3-102.6v-132.3q0-1.5 0.6-2.8q0.6-1.3 1.6-2.3q1.1-1 2.4-1.5q1.4-0.5 2.9-0.4q5.4 0.3 11.1 0.3c33 0 63.7-8.9 80-23.4c1.3-1.1 3-1.7 4.7-1.7c1.7 0 3.3 0.6 4.6 1.7c16.3 14.5 47 23.4 80 23.4q5.7 0 11.1-0.3q1.5-0.1 2.8 0.4q1.4 0.5 2.4 1.5q1.1 1 1.7 2.3q0.5 1.3 0.6 2.8v132.3c0 24.5-17.2 49.2-51.1 73.7c-15.5 11.2-32 20.8-49.3 28.9c-0.9 0.4-1.9 0.7-2.9 0.7zm-89.2-228.3v125c0 43.1 73.6 80.9 89.2 88.4c15.4-7.4 30.1-16.1 44-26.1c20.6-14.9 45.2-37.8 45.2-62.3v-125q-2.2 0.1-4.5 0.1c-34 0-65.1-8.6-84.6-23.1c-19.6 14.5-50.7 23.1-84.7 23.1q-2.3 0-4.6-0.1z" /><path class="s3" d="m270.2 128.2v32.3h-29.1v29.1h-32.3v-29.1h-29v-32.3h29v-29.1h32.3v29.1z" /><path fill-rule="evenodd" class="s4" d="m167.5 429.6h-78.7q-1.5 0-2.8-0.5q-1.3-0.6-2.3-1.6q-1-1-1.5-2.3q-0.5-1.4-0.5-2.8l1.3-54.2l-34.4-37.6c-6.1-8.1-9.1-18.2-8.3-28.4c0.9-26.3 1.1-52.4 1.3-76.9l0.3-52.9c0-5.8 1.7-11.6 5-16.5c3.3-4.8 8-8.6 13.5-10.7c4.3-1.5 8.8-2 13.3-1.4c4.5 0.6 8.8 2.2 12.5 4.8c3.7 2.6 6.7 6.1 8.8 10.1c2.1 4 3.2 8.4 3.2 13v73c3.8 0.3 7.5 1.4 10.9 3.2c3.4 1.8 6.4 4.2 8.8 7.2l29.3 36.5c4.9 6.2 10 12.1 15.1 18.2l2.5 3c6 6.5 9.5 14.9 9.7 23.7v86.1c0 1.8-0.7 3.6-2 5c-1.3 1.3-3.1 2-5 2zm-71.5-14.1h64.5v-79c-0.3-5.5-2.6-10.7-6.4-14.6l-2.6-3c-5.2-6.2-10.3-12.3-15.3-18.5l-29.2-36.4c-1.4-1.7-3-3-5-3.9c-1.9-0.9-4-1.4-6.1-1.4q-1.4 0-2.9 0.3l-0.4 0.1l-0.2 0.1c-1.9 0.4-3.7 1.3-5.2 2.5c-1.7 1.4-3 3-3.9 5c-0.9 1.9-1.4 4-1.4 6.1c0 3.2 1.1 6.3 3.1 8.7l0.1 0.2l35.1 44.9c1.1 1.5 1.6 3.3 1.4 5.1c-0.2 1.9-1.2 3.5-2.6 4.7c-1.5 1.1-3.3 1.6-5.2 1.4c-1.8-0.2-3.5-1.1-4.7-2.6l-35.1-44.9l-0.1-0.1c-4.6-5.9-6.7-13.2-5.8-20.6c0.8-7.3 4.5-14.1 10.2-18.7l0.1-0.1q2.6-2.2 5.7-3.6v-75.5c0-2.3-0.5-4.5-1.6-6.5c-1-2.1-2.5-3.8-4.4-5.1q-2.9-1.9-6.3-2.4c-2.2-0.3-4.5 0-6.6 0.8c-2.8 1.1-5.2 3.1-6.8 5.6c-1.6 2.5-2.4 5.5-2.4 8.5l-0.4 52.7c-0.1 24.6-0.4 50.9-1.2 77.3c-0.7 6.5 0.9 13.1 4.7 18.6l36.2 39.6c1.2 1.3 1.9 3.1 1.9 4.9zm265.2 14h-78.8c-1.8 0-3.6-0.7-4.9-2c-1.3-1.3-2.1-3.1-2.1-5v-86.1c0.3-8.8 3.7-17.2 9.7-23.6l2.6-3.1c5.1-6 10.1-12 15.1-18.2l29.2-36.4c2.4-3 5.4-5.5 8.8-7.3c3.4-1.7 7.1-2.8 11-3.1v-73.1c0-4.5 1.1-9 3.2-13c2-4 5.1-7.4 8.8-10c3.7-2.6 7.9-4.3 12.4-4.9c4.5-0.6 9.1-0.1 13.3 1.4c5.5 2.2 10.3 5.9 13.6 10.8c3.3 4.9 5 10.7 5 16.6l0.3 52.7c0.2 24.5 0.4 50.6 1.3 76.9c0.8 10.2-2.2 20.3-8.3 28.4l-34.5 37.6l1.3 54.2q0 1.4-0.5 2.8q-0.5 1.3-1.5 2.3q-1 1-2.3 1.6q-1.3 0.5-2.7 0.5zm-71.7-14.1h64.5l-1.2-49.8c0-1.8 0.6-3.6 1.9-4.9l36.3-39.7c3.6-5.4 5.3-11.9 4.6-18.4c-0.9-26.5-1.1-52.7-1.3-77.3l-0.3-52.7c0-3-0.8-6-2.4-8.5c-1.7-2.6-4.1-4.6-6.9-5.7c-2.5-0.9-5.2-1.1-7.8-0.5c-2.6 0.5-5 1.9-6.9 3.8c-1.3 1.3-2.4 2.8-3.1 4.5c-0.7 1.7-1.1 3.5-1.1 5.4v75.5q3.1 1.4 5.7 3.5l0.1 0.1c5.8 4.7 9.5 11.4 10.3 18.8c0.9 7.4-1.3 14.9-5.9 20.7l-35.2 44.9c-1.1 1.5-2.8 2.4-4.6 2.6c-1.9 0.2-3.7-0.3-5.2-1.4c-1.4-1.2-2.4-2.8-2.6-4.7c-0.3-1.8 0.2-3.6 1.3-5.1l35.2-45l0.1-0.1c2.3-2.9 3.3-6.6 2.9-10.3c-0.4-3.7-2.3-7.1-5.2-9.5c-1.6-1.2-3.4-2.1-5.4-2.6l-0.4-0.1c-2.6-0.5-5.3-0.3-7.7 0.6c-2.5 0.8-4.6 2.4-6.3 4.4l-29.1 36.4c-5.1 6.2-10.2 12.3-15.3 18.5l-2.6 3c-3.8 3.9-6.1 9.1-6.4 14.6z" /></svg>